<svg xmlns="http://www.w3.org/2000/svg" viewBox="0 0 684.34 198.66"><defs><style>.cls-1{fill:#231f20;}.cls-2{fill:#1b75bb;}.cls-3{fill:none;}</style></defs><title>Asset 1</title><g id="Layer_2" data-name="Layer 2"><g id="Stryke_Force_copy" data-name="Stryke Force copy"><path class="cls-1" d="M567.53,112.84H483.24v12.54h71.54v18.49H484.31a16.41,16.41,0,0,0,6.53,9.22q4.74,3.22,13.88,3.22h62.81v19.34H504.29a48.19,48.19,0,0,1-17.17-2.87,36.25,36.25,0,0,1-12.91-8.13,34.9,34.9,0,0,1-8.13-12.8,48.36,48.36,0,0,1-2.82-17V93.49H567.53Z"/><path class="cls-1" d="M451.22,112.84H368.63v21.73q0,21.74,21.47,21.74h61.12v19.34H389.68a51.17,51.17,0,0,1-17.43-2.76,34.49,34.49,0,0,1-12.92-8,34,34,0,0,1-8-12.86,50.74,50.74,0,0,1-2.71-17.16V93.49H451.22Z"/><path class="cls-1" d="M258.15,125.38h46.66q6.06,0,9.51-3.24c2.31-2.16,3.78-5.27,4.42-9.3H248.9v62.81h-20V93.49H338.08v15.73q0,31.16-30.29,34.33L339,175.65H314.8l-31.67-31.78h-25Z"/><path class="cls-2" d="M219.6,19.35H181.87V82.16h-20V19.35H148.07q-13.08,0-14.14,12.54H115.11Q117.66,0,151.25,0H219.6Z"/><path class="cls-3" d="M148,122.55c-5.51-6.65-13.29-20.21-17.39-22.43C136.09,106.77,143.87,120.33,148,122.55Z"/><path class="cls-3" d="M128.72,81.85a10.8,10.8,0,0,1-3-3.43C119.13,81,126.1,81.41,128.72,81.85Z"/><path class="cls-3" d="M128.72,81.85a2.58,2.58,0,0,0,.89.35C129.73,82.06,129.35,82,128.72,81.85Z"/><path class="cls-3" d="M141.59,98.69c2.37,2.54,7.06,11.34,8,9.52C147.23,105.68,142.54,96.87,141.59,98.69Z"/><path class="cls-3" d="M142.42,137.53c-5.95-2.52-17.5-4.35-26-4.12.57,6.23,1.25,12.47,5.21,19.23Z"/><path class="cls-3" d="M115.58,130.74c8.61,1.92,23.81,4.26,28.47,4.51C135.44,133.33,120.24,131,115.58,130.74Z"/><path class="cls-3" d="M143.73,121.24c-5.16-6.11-9.81-15.5-15.3-19.55-3.32,5.82-9.15,11.24-9.13,17.58C126.32,118.63,140.65,124.62,143.73,121.24Z"/><path class="cls-3" d="M156.25,114.34c1.61-8.84,4.07-17.54,3.59-26.71-6.31,1.14-12.64,2.39-19.22,5.2Z"/><path class="cls-3" d="M112.27,91.51c1.37-.3,7.47,2.06,5,.79-1.31-1.14-2.86-.68-4-2.55-2.46.88-1.13,2.36-3.07,3.32,1.13,1.25,4.66,7.44,4.37,4.5C113.14,95.46,110.29,93.1,112.27,91.51Z"/><path class="cls-3" d="M144.9,125.87c-.34-2.61-7.83-3.14-12.7-3.92-5.56-.88-12-2-15-1.11C126.47,122.07,135.9,122.64,144.9,125.87Z"/><path class="cls-3" d="M122.47,155.31c7.31-6,17.9-11.55,23.14-17.91l-12.19,8.86C130.16,149.34,123.67,151.9,122.47,155.31Z"/><path class="cls-3" d="M140.56,73.15c4.87,7.44,4.07,2.92-.32-2-1.6,2.07-2.59.34-4.11,1.89C137.84,76.07,138,71.14,140.56,73.15Z"/><path class="cls-3" d="M177.69,115.2c5.15-4.47,13.58-8.42,16.68-13.22C189.21,106.45,180.78,110.4,177.69,115.2Z"/><path class="cls-3" d="M176.24,128.3c7.55-6.21,18.38-11.9,23.86-18.43l-12.19,8.85C184.42,122,177.68,124.72,176.24,128.3Z"/><path class="cls-3" d="M188.39,75.65c-.09,2.91-1.36,9.4,2.34,9.25-1.22,0-2.93-6.51-.91-10.29-1.3.23-2.44-.56-3.51-1.83-1.27,1.07-2.06,2.21-1.83,3.52C186,74.61,186.37,73.06,188.39,75.65Z"/><path class="cls-3" d="M97.2,138.62c-.35-2.85,5-1.17,4.49-4.37-2.07,2.39-3.53.94-5.53,2.93,1.14,1.24.34,2.17,1.36,3.39,6.8-3.18,10.53,13.23,7.43,1.18C102.58,139.39,99.53,141.22,97.2,138.62Z"/><path class="cls-3" d="M104.77,118.88a33,33,0,0,1-7.11.77,4.45,4.45,0,0,1-.59,3.72c5.89,3.85,7.6,2.61.72-.52.9-.92.35-2.06,1.11-3,2.16,1.09,4.63.18,7.1-.78C107.86,113.4,107.32,113.32,104.77,118.88Z"/><path class="cls-3" d="M176.24,140.35c8.2,1.86,23,4.13,27.23,4.31C195.27,142.81,180.49,140.54,176.24,140.35Z"/><path class="cls-3" d="M163,87.5c-1.92,8.61-4.26,23.81-4.5,28.47C160.45,107.36,162.79,92.16,163,87.5Z"/><path class="cls-3" d="M172.74,90.3c-1.85,8.21-4.12,23-4.31,27.24C170.29,109.34,172.56,94.55,172.74,90.3Z"/><path class="cls-3" d="M152.23,75.63c1.94-1.1.32-5.63,1.69-6.71,2.47-1.94,3.08,3,4.37,4.5,3.3,3.75-2.64-7.19-1.69-5.34C150.18,68.08,152.49,75.48,152.23,75.63Z"/><path class="cls-3" d="M172.54,115.65c6.11-5.16,15.5-9.81,19.55-15.3-5.75-3.72-11.18-9.5-17.59-9.13C175.15,98.23,169.16,112.57,172.54,115.65Z"/><path class="cls-3" d="M167.47,75.51c1.58-2.08,1.26-4.45,4.18-6.32.52.72,1.2.43,1.75.92-.77,4.57,2.09,2.06.2-1.24-1.61.85-2.81-.92-4.43-.07.36,2.38-1.25,4.45-2.93,6.51-1.63.6-6.07-1.36-5.87,1C162.91,75,164.88,77.18,167.47,75.51Z"/><path class="cls-3" d="M180,128.88c8.6.41,16.87,3,25.47,3.4.07-6.33-2.05-13-4.48-19.74C194.36,118.05,184.49,123.05,180,128.88Z"/><path class="cls-3" d="M197.53,162.13c3.59-4.18,8.53-14.61,7.51-15.31C204.79,150.94,195.08,162.44,197.53,162.13Z"/><path class="cls-3" d="M177.09,131c9.28-1.18,20.82,4.74,28.15,2.55C196.08,133.93,184.49,128.31,177.09,131Z"/><path class="cls-3" d="M176.56,142.31l15.63,21.51c6.16-5.16,8.61-10.91,10.89-16.68C194.52,143.78,185.45,143.6,176.56,142.31Z"/><path class="cls-3" d="M180.14,151.76c2.72,3,7.75,12.36,9.05,11C186.47,159.74,181.45,150.35,180.14,151.76Z"/><path class="cls-3" d="M216.85,116.33c1-.68,2.62-2.16.91-1.76C212.55,120.38,219.59,128.87,216.85,116.33Z"/><path class="cls-3" d="M207.58,130.72c.08-2.93-.11-10.09-3.51-13.88C206.35,121.57,207.47,135.27,207.58,130.72Z"/><path class="cls-3" d="M225,141.09c-5.41.83-6.77-5.53-7.69-7.56.47,2-.64,3.7,1,5.86,1.82,1.84,4.17.4,5.8,3.46-.73.52-.44,1.2-.92,1.76-1.36.26-7.94,1-5.34,1.69a33.55,33.55,0,0,1,7.1-.78C222.61,143.68,225.69,142.69,225,141.09Z"/><path class="cls-3" d="M120.83,181.7c-.36-.41-.73-.77-1.24-.2C124.75,184.8,129.12,176.12,120.83,181.7Z"/><path class="cls-3" d="M165.48,148.16c5.51,6.65,13.29,20.21,17.39,22.43C177.36,163.94,169.58,150.39,165.48,148.16Z"/><path class="cls-3" d="M153.43,148.16c-1.8,7.79-4,22.15-4.12,26C151.11,166.36,153.3,152,153.43,148.16Z"/><path class="cls-3" d="M151.54,144.05c4.38-4.75,4.54,1.28,5.47,1.51-.85-1.62.92-2.82.07-4.44C155.68,141.57,151.23,141.15,151.54,144.05Z"/><path class="cls-3" d="M130,164.11c5.21,5.83,11,7.79,16.68,10.89,2.39-8.71,2.48-17.8,4.83-26.52Z"/><path class="cls-3" d="M164.89,151.88c-.4,8.6-3,16.87-3.4,25.47,6.36-1.41,12.42-1,19.23-5.2C175.38,165.8,170.56,156.17,164.89,151.88Z"/><path class="cls-3" d="M152.06,144.77l-12.91,9.38c-3.49,3.25-10.23,6-11.67,9.57C135.27,157.34,146.34,151.48,152.06,144.77Z"/><path class="cls-3" d="M139,187.12c-2.27,1.36-2.9,5.18-5.53,2.93-.42-1.54,1.16-8.12.26-5.67-.57,2.23-1.93,4.35-.46,6.9,1.41-.9,2.22,2,3.71.59C135.37,190.29,141.86,186.81,139,187.12Z"/><path class="cls-3" d="M161.82,179.31A50.38,50.38,0,0,0,175.5,177C174.4,176.53,161,178.64,161.82,179.31Z"/><path class="cls-3" d="M159.49,146c1.61-6.44,5.39-5.8,10-2.87-.58-2.84-3.61-6.07-.58-8.34,1.52,1.06,3.3.53,5.14-.45-2.77-3-4.94-.95-6.12-5.41,1.16-1.51,5.83-2.47,3.26-4.56-1.24-1.52-3.26,1.9-4.82,2.41a4.17,4.17,0,0,0-2.28-1.63c-2.23-2.26,1.26-3.61-1-5.87-3.69,1.53-.59,4.14-3.45,5.8-2.85,1.94-4.44-4-7.23-2.42-1.06,1.53,3.08,3.88,1.69,5.35-.5,4.07-5.9.25-6.26,3.45,1.66,2.86,4.27-.24,5.8,3.46,1.74,2.39-4.58,3.5-2.22,6,2.56-.15,5.55-3,7.62-.06C158.25,142.37,157.51,143.94,159.49,146Z"/><path class="cls-3" d="M169.43,191.3c-1.45,1.68.49,3.89-2.73,5.28-.53-.72-1.2-.43-1.76-.91-1.41-8.27-3-4.1.32,2,1.7-1.4,3-.48,4.63-1.17C168.17,194.86,170.62,188.77,169.43,191.3Z"/><path class="cls-3" d="M159,177c1.86-8.2,4.13-23,4.31-27.23C161.47,157.93,159.2,172.71,159,177Z"/><path d="M219.9,137.12c0-1.48-.39-3,.06-4.44,2.69-2.29,4.81-1,7.5-3.25-1-1.85-1.51-3.62-.45-5.15-2.52-2.78-5.79-.84-8.47-2.61.56-1.81-1.59-4.06.26-5.67,2.07-2.38,3.53-.93,5.54-2.93-2.07-2.44-1.19-4.42-2.73-6.78-2.82.45-5.88,2.39-8.34.59,1-.91-.61-2.22-1.37-3.39,1.3-2.12,2.25-4.3,5.41-6.13-1.78-2.13-3.34-5.61-5.4-5.93-2.41,1.82-4.84,3.86-6.78,2.74l-2.61-3.59c1.36-1.9,1.39-4,3.46-5.8-2.16-2.36-4.22-5.42-6.84-4.89.86,1.83-3.32,2.86-4.5,4.37-1.42-.42-2.62-2.14-4-2.55.15-2.3-.49-4.73,1.7-6.71-1.94-2.46-4.38-1.71-6.32-4.17-2.34,2.16-2.44,4.69-6.13,6.64-1.07-2.59-3,0-4-2.54-.58-2.42.65-4.55-.78-7.11-2.43.63-4.48-1.08-6.91-.45-.12,2.3-.32,4.6-2.94,6.51a8,8,0,0,1-4.95-.78c-.38-2.18-1.42-4.46-1.49-6.59-2.7,1-5-.51-7.82,1.3.32,2.59,1.26,5.28-1.18,7.43-1.27-1.33-3.16,1.27-4.43-.07l-4.17-5.73c-2.29,1.08-4.49,1.65-6.78,2.73,1.07,2.49,2.32,5,.78,7.1l-3.58,2.61c-2-2.08-4.2-2.89-6.13-5.41-1.91,1.39-3.82,2.77-5.73,4.17,2.12,2.87,3.81,5.68,2.54,8l-3.59,2.6c-1.84-1.75-4-1.78-5.8-3.45a22.28,22.28,0,0,0-4.69,5.6l4.69,6.45c-2.46.88-1.13,2.36-3.07,3.33-2.39.43-4.58-.42-6.71-1.7-1.57,2.5-3.16,5-3.13,7.75,2.13-.09,3.91,2,5.8,3.46-.8,1.56-.84,3.25-2,4.75-2.7,1-5.09,0-7.83,1.3.63,2.43-1.09,4.48-.46,6.91,2.67-.78,4.85,1.43,7.24,2.41-1.8,1.41,1,3.55-.79,4.95a23.16,23.16,0,0,1-7.3,2c1.27,2.74.32,5.13,1.3,7.82a6.69,6.69,0,0,1,7.43,1.18c-.67,1.16,1.9,2.84.65,3.91l-6.45,4.69c2.44,2.29,1,4,3.45,6.25,2.7-1,5.37-1.87,7.62-.06,2.67,3.6-.4,6.28-3.33,9l4.17,5.74c2.61-1.79,5.17-3.24,7.3-2a5,5,0,0,0,2.8,2.35c-1,2.37-1.36,4.86-3.65,7,1.84,1.73,3.76,3,5.6,4.69l6.45-4.69c1.19,1.87,2.74,1.4,4,2.55-.61,2.65-2.1,5.16-.65,8.14a16.79,16.79,0,0,0,6,2.22c.46-2.25,2.63-4.24,4.17-6.32,1.3,2.5,3.31.49,4.76,2-1.24,5.92,1,9.92,7.68,7.57a17.1,17.1,0,0,1,2.22-6c1.76.91,4-1.17,5.47,1.5,2.38,2.28.45,3.88,2.22,6.06,2.44-.76,4.65,0,7.1-.77-.08-2.56-.76-5.2,1.18-7.43,1.63.33,3.74-2.24,5.15-.45,2.1,2.23,2.63,4.22,3.45,6.25,2.45-2.14,4.56-2.1,6.77-2.73-.44-2.82-2.39-5.88-.58-8.34A5.76,5.76,0,0,0,191,183.3c1.52,2.42,3.47,2.11,4.88,5.21l6.46-4.68c-1.83-2.41-3.86-4.84-2.74-6.78a5.76,5.76,0,0,0,3.06-3.32c1.94,2.49,4.55.67,6.32,4.17,2.09-2.21,4.86-4.31,4.89-6.84-2,.64-3.2-3.82-4.88-5.21,2.57-1.08,1.21-2.77,3.78-3.85s4.73,2.22,7.43,1.18c-.74-2.23,1.62-4,2.22-6-2-2.32-4.32-2.13-6.12-5.42,1.14-1.29.67-2.85,2.54-4,2.45-.75,4.66,0,7.1-.77a12.51,12.51,0,0,1,1-6.19C224.81,138.15,221.94,140.24,219.9,137.12ZM97.52,140.57c-1-1.22-.22-2.15-1.36-3.39,2-2,3.46-.54,5.53-2.93.52,3.2-4.84,1.52-4.49,4.37,2.33,2.6,5.38.77,7.75,3.13C108.05,153.8,104.32,137.39,97.52,140.57Zm8.48-21.5c-2.47,1-4.94,1.87-7.1.78-.76.94-.21,2.08-1.11,3,6.88,3.13,5.17,4.37-.72.52a4.45,4.45,0,0,0,.59-3.72,33,33,0,0,0,7.11-.77C107.32,113.32,107.86,113.4,106,119.07Zm94.1-9.2c-5.48,6.53-16.31,12.22-23.86,18.43,1.44-3.58,8.18-6.32,11.67-9.58Zm-22.41,5.33c3.09-4.8,11.52-8.75,16.68-13.22C191.27,106.78,182.84,110.73,177.69,115.2Zm8.62-42.42c1.07,1.27,2.21,2.06,3.51,1.83-2,3.78-.31,10.34.91,10.29-3.7.15-2.43-6.34-2.34-9.25-2-2.59-2.35-1-3.91.65C184.25,75,185,73.85,186.31,72.78Zm5.78,27.57c-4.05,5.49-13.44,10.14-19.55,15.3-3.38-3.08,2.61-17.42,2-24.43C180.91,90.85,186.34,96.63,192.09,100.35Zm11.38,44.31c-4.25-.18-19-2.45-27.23-4.31C180.49,140.54,195.27,142.81,203.47,144.66Zm-35-27.12c.19-4.25,2.46-19,4.31-27.24C172.56,94.55,170.29,109.34,168.43,117.54Zm-2.19-42.23c1.68-2.06,3.29-4.13,2.93-6.51,1.62-.85,2.82.92,4.43.07,1.89,3.3-1,5.81-.2,1.24-.55-.49-1.23-.2-1.75-.92-2.92,1.87-2.6,4.24-4.18,6.32-2.59,1.67-4.56-.56-7.1.78C160.17,74,164.61,75.91,166.24,75.31ZM163,87.5c-.24,4.66-2.58,19.86-4.5,28.47C158.77,111.31,161.11,96.11,163,87.5ZM156.6,68.08c-.95-1.85,5,9.09,1.69,5.34-1.29-1.46-1.9-6.44-4.37-4.5-1.37,1.08.25,5.61-1.69,6.71C152.49,75.48,150.18,68.08,156.6,68.08Zm3.24,19.55c.48,9.17-2,17.87-3.59,26.71L140.62,92.83C147.2,90,153.53,88.77,159.84,87.63ZM149.6,108.21c-.95,1.82-5.64-7-8-9.52C142.54,96.87,147.23,105.68,149.6,108.21Zm-9.36-37c4.39,4.88,5.19,9.4.32,2-2.56-2-2.72,2.92-4.43-.07C137.65,71.53,138.64,73.26,140.24,71.19ZM148,122.55c-4.1-2.22-11.88-15.78-17.39-22.43C134.68,102.34,142.46,115.9,148,122.55Zm-22.2-44.13a10.8,10.8,0,0,0,3,3.43c.63.1,1,.21.89.35a2.58,2.58,0,0,1-.89-.35C126.1,81.41,119.13,81,125.77,78.42Zm2.66,23.27c5.49,4,10.14,13.44,15.3,19.55-3.08,3.38-17.41-2.61-24.43-2C119.28,112.93,125.11,107.51,128.43,101.69ZM132.2,122c4.87.78,12.36,1.31,12.7,3.92-9-3.23-18.43-3.8-27.75-5C120.18,120,126.64,121.07,132.2,122Zm13.41,15.45c-5.24,6.36-15.83,11.87-23.14,17.91,1.2-3.41,7.69-6,10.95-9.05ZM114.49,97.57c.29,2.94-3.24-3.25-4.37-4.5,1.94-1,.61-2.44,3.07-3.32,1.18,1.87,2.73,1.41,4,2.55,2.51,1.27-3.59-1.09-5-.79C110.29,93.1,113.14,95.46,114.49,97.57Zm29.56,37.68c-4.66-.25-19.86-2.59-28.47-4.51C120.24,131,135.44,133.33,144.05,135.25Zm-27.63-1.84c8.5-.23,20,1.6,26,4.12l-20.79,15.11C117.67,145.88,117,139.64,116.42,133.41Zm3.17,48.09c.51-.57.88-.21,1.24.2C129.12,176.12,124.75,184.8,119.59,181.5Zm7.89-17.78c1.44-3.58,8.18-6.32,11.67-9.57l12.91-9.38C146.34,151.48,135.27,157.34,127.48,163.72Zm9.5,28.15c-1.49,1.42-2.3-1.49-3.71-.59-1.47-2.55-.11-4.67.46-6.9.9-2.45-.68,4.13-.26,5.67,2.63,2.25,3.26-1.57,5.53-2.93C141.86,186.81,135.37,190.29,137,191.87ZM146.64,175c-5.65-3.1-11.47-5.06-16.68-10.89l21.51-15.63C149.12,157.2,149,166.29,146.64,175Zm2.67-.84c.13-3.85,2.32-18.21,4.12-26C153.3,152,151.11,166.36,149.31,174.16Zm7.7-28.6c-.93-.23-1.09-6.26-5.47-1.51-.31-2.9,4.14-2.48,5.54-2.93C157.93,142.74,156.16,143.94,157,145.56Zm-5.6-4.7c-2.36-2.49,4-3.6,2.22-6-1.53-3.7-4.14-.6-5.8-3.46.36-3.2,5.76.62,6.26-3.45,1.39-1.47-2.75-3.82-1.69-5.35,2.79-1.62,4.38,4.36,7.23,2.42,2.86-1.66-.24-4.27,3.45-5.8,2.24,2.26-1.25,3.61,1,5.87a4.17,4.17,0,0,1,2.28,1.63c1.56-.51,3.58-3.93,4.82-2.41,2.57,2.09-2.1,3.05-3.26,4.56,1.18,4.46,3.35,2.4,6.12,5.41-1.84,1-3.62,1.51-5.14.45-3,2.27,0,5.5.58,8.34-4.58-2.93-8.36-3.57-10,2.87-2-2-1.24-3.58-.46-5.15C157,137.87,154,140.71,151.41,140.86ZM159,177c.18-4.25,2.45-19,4.31-27.23C163.15,154,160.88,168.76,159,177Zm6.24,20.66c-3.36-6.05-1.73-10.22-.32-2,.56.48,1.23.19,1.76.91,3.22-1.39,1.28-3.6,2.73-5.28,1.19-2.53-1.26,3.56.46,5.15C168.3,197.14,167,196.22,165.26,197.62Zm-3.44-18.31c-.8-.67,12.58-2.78,13.68-2.27A50.38,50.38,0,0,1,161.82,179.31Zm-.33-2c.41-8.6,3-16.87,3.4-25.47,5.67,4.29,10.49,13.92,15.83,20.27C173.91,176.39,167.85,175.94,161.49,177.35Zm4-29.19c4.1,2.23,11.88,15.78,17.39,22.43C178.77,168.37,171,154.81,165.48,148.16Zm14.66,3.6c1.31-1.41,6.33,8,9.05,11C187.89,164.12,182.86,154.72,180.14,151.76Zm12.05,12.06-15.63-21.51c8.89,1.29,18,1.47,26.52,4.83C200.8,152.91,198.35,158.66,192.19,163.82Zm5.34-1.69c-2.45.31,7.26-11.19,7.51-15.31C206.06,147.52,201.12,158,197.53,162.13ZM177.09,131c7.4-2.66,19,3,28.15,2.55C197.91,135.71,186.37,129.79,177.09,131Zm2.87-2.09c4.53-5.83,14.4-10.83,21-16.34,2.43,6.73,4.55,13.41,4.48,19.74C196.83,131.88,188.56,129.29,180,128.88Zm27.62,1.84c-.11,4.55-1.23-9.15-3.51-13.88C207.47,120.63,207.66,127.79,207.58,130.72Zm10.18-16.15c1.71-.4.13,1.08-.91,1.76C219.59,128.87,212.55,120.38,217.76,114.57Zm7.15,31a33.55,33.55,0,0,0-7.1.78c-2.6-.73,4-1.43,5.34-1.69.48-.56.19-1.24.92-1.76-1.63-3.06-4-1.62-5.8-3.46-1.62-2.16-.51-3.88-1-5.86.92,2,2.28,8.39,7.69,7.56C225.69,142.69,222.61,143.68,224.91,145.52Z"/><path d="M165.49,136.11c2.06-2.57,1-6.71-3.58-9.45C148.57,129.53,159.56,143.52,165.49,136.11Zm-6.39.26c-1.61-2.16-3.84-4.42-1-5.87.69,1.59-1.11,2.79,1.17,4.63.56.48,1.24.19,1.76.91C168,128.8,164,137.73,159.1,136.37Z"/><path class="cls-1" d="M93.75,143.87H20v31.78H0V134.41a49.4,49.4,0,0,1,2.76-17,34.32,34.32,0,0,1,20.89-21.1A49.06,49.06,0,0,1,41,93.49h59.31v19.35H41.46q-9.15,0-13.88,3.24a16.57,16.57,0,0,0-6.53,9.3h72.7Z"/><path class="cls-2" d="M684.34,82.16H580.07V40.92a48.45,48.45,0,0,1,2.82-17A35.35,35.35,0,0,1,591,11.06a35.78,35.78,0,0,1,12.92-8.19A48.32,48.32,0,0,1,621.1,0h63.24V19.35H621.53q-9.15,0-13.87,3.24a16.54,16.54,0,0,0-6.54,9.3h70.47V50.38H600.06V62.82h84.28Z"/><path class="cls-2" d="M484.76,82.16h-20V0h20V31.89h31.11L543.79,0h25L539.43,32.74Q554.09,35.5,562,45.6t8,27.1v9.46H550v-10q0-21.78-21.47-21.79H484.76Z"/><path class="cls-2" d="M454.47,0V41.35a50.78,50.78,0,0,1-2.71,17.16,34.12,34.12,0,0,1-8,12.86,34.57,34.57,0,0,1-12.92,8,51.17,51.17,0,0,1-17.43,2.76h-67V62.82H413q9.24,0,13.92-3.11a15.65,15.65,0,0,0,6.38-9.22H346.48V0h20V31.89h68V0Z"/><path class="cls-2" d="M257.56,31.89h46.66q6.06,0,9.51-3.24t4.42-9.3H248.31V82.16h-20V0H337.49V15.73q0,31.14-30.29,34.33l31.25,32.1H314.21L282.54,50.38h-25Z"/><path class="cls-2" d="M108.34,19.35H41.17Q28.63,19.35,27,31.89h81.74V47.51q0,34.65-37.42,34.65H8V62.82H75.61q12,0,13.92-12.44H8V34.65Q8,0,45.42,0h62.92Z"/></g></g></svg>