<svg id="Button" xmlns="http://www.w3.org/2000/svg" width="91.75" height="25" viewBox="0 0 91.75 25"><defs><style>.cls-1{fill:#1b75bb;}.cls-2{fill:#fff;}</style></defs><title>donate</title><path class="cls-1" d="M13,0H78.75a13,13,0,0,1,13,13v0a12,12,0,0,1-12,12H12A12,12,0,0,1,0,13v0A13,13,0,0,1,13,0Z"/><path class="cls-2" d="M618.4,547.61V535.52h3.72a5.79,5.79,0,0,1,2.23.42,5.2,5.2,0,0,1,1.75,1.18,5.54,5.54,0,0,1,1.13,1.82,6.61,6.61,0,0,1,.41,2.36v.55a6.51,6.51,0,0,1-.41,2.35A5.28,5.28,0,0,1,626.1,546a4.94,4.94,0,0,1-1.76,1.17,5.85,5.85,0,0,1-2.25.42Zm2.49-10.07v8.07h1.2a2.69,2.69,0,0,0,2.25-1,4.42,4.42,0,0,0,.77-2.78v-.57a4.38,4.38,0,0,0-.76-2.79,2.7,2.7,0,0,0-2.23-1Z" transform="translate(-598.56 -530.14)"/><path class="cls-2" d="M628.91,543a5.6,5.6,0,0,1,.29-1.82,4.05,4.05,0,0,1,.82-1.45,3.7,3.7,0,0,1,1.33-1,4.86,4.86,0,0,1,3.62,0,3.74,3.74,0,0,1,1.34,1,4.07,4.07,0,0,1,.83,1.45,5.6,5.6,0,0,1,.28,1.82v.17a5.56,5.56,0,0,1-.28,1.82,4.07,4.07,0,0,1-.83,1.45,3.8,3.8,0,0,1-1.33.95,4.86,4.86,0,0,1-3.62,0,3.84,3.84,0,0,1-1.34-.95,4.05,4.05,0,0,1-.82-1.45,5.56,5.56,0,0,1-.29-1.82Zm2.4.17a5.54,5.54,0,0,0,.1,1,2.71,2.71,0,0,0,.32.83,1.61,1.61,0,0,0,.57.56,1.7,1.7,0,0,0,.87.21,1.62,1.62,0,0,0,.85-.21,1.56,1.56,0,0,0,.58-.56,2.28,2.28,0,0,0,.32-.83,4.8,4.8,0,0,0,.1-1V543a4.68,4.68,0,0,0-.1-1,2.41,2.41,0,0,0-.32-.84,1.67,1.67,0,0,0-.58-.57,1.6,1.6,0,0,0-.86-.22,1.57,1.57,0,0,0-.86.22,1.73,1.73,0,0,0-.57.57,2.88,2.88,0,0,0-.32.84,5.4,5.4,0,0,0-.1,1Z" transform="translate(-598.56 -530.14)"/><path class="cls-2" d="M641.11,538.63l.07,1a3.23,3.23,0,0,1,1.12-.9,3.5,3.5,0,0,1,1.46-.31,3.59,3.59,0,0,1,1.17.18,2.11,2.11,0,0,1,.89.59,2.76,2.76,0,0,1,.58,1.06,5.36,5.36,0,0,1,.2,1.61v5.71h-2.4v-5.73a2.36,2.36,0,0,0-.09-.71,1.12,1.12,0,0,0-.28-.45,1.08,1.08,0,0,0-.45-.24,2.69,2.69,0,0,0-.61-.07,1.73,1.73,0,0,0-.91.23,1.78,1.78,0,0,0-.61.64v6.33h-2.4v-9Z" transform="translate(-598.56 -530.14)"/><path class="cls-2" d="M653.62,547.61a2.77,2.77,0,0,1-.24-.81,3,3,0,0,1-.91.69,2.93,2.93,0,0,1-1.35.29,3.66,3.66,0,0,1-1.21-.2,3.09,3.09,0,0,1-1-.56,2.54,2.54,0,0,1-.64-.85,2.44,2.44,0,0,1-.24-1.08,2.84,2.84,0,0,1,.27-1.26,2.47,2.47,0,0,1,.78-.93,4,4,0,0,1,1.3-.58,7.45,7.45,0,0,1,1.8-.2h1.07v-.51a1.45,1.45,0,0,0-.32-1,1.23,1.23,0,0,0-1-.37,1.39,1.39,0,0,0-1,.29,1,1,0,0,0-.35.8h-2.4a2.39,2.39,0,0,1,.27-1.11,2.78,2.78,0,0,1,.77-.91,3.78,3.78,0,0,1,1.2-.62,5.45,5.45,0,0,1,3,0,3.25,3.25,0,0,1,1.14.59,2.83,2.83,0,0,1,.75,1,3.33,3.33,0,0,1,.27,1.38v3.81c0,.25,0,.48,0,.68s0,.39.06.55a4,4,0,0,0,.11.44c.05.13.1.25.16.37v.14Zm-2-1.67a2,2,0,0,0,.57-.07,2.22,2.22,0,0,0,.47-.2,1.45,1.45,0,0,0,.36-.28,1.41,1.41,0,0,0,.24-.32v-1.54h-1a2.83,2.83,0,0,0-.82.1,1.5,1.5,0,0,0-.58.29,1.09,1.09,0,0,0-.33.44,1.42,1.42,0,0,0-.11.55,1,1,0,0,0,.32.74A1.24,1.24,0,0,0,651.64,545.94Z" transform="translate(-598.56 -530.14)"/><path class="cls-2" d="M660.41,536.42v2.21h1.53v1.76h-1.53v4.48a1.89,1.89,0,0,0,.05.46.6.6,0,0,0,.18.29.56.56,0,0,0,.29.14,1.54,1.54,0,0,0,.4,0l.39,0,.31,0v1.82a5.21,5.21,0,0,1-.65.15,4.67,4.67,0,0,1-.8.07,3.48,3.48,0,0,1-1.06-.15,2,2,0,0,1-.81-.46,2.06,2.06,0,0,1-.52-.82,3.69,3.69,0,0,1-.18-1.22v-4.74H656.7v-1.76H658v-2.21Z" transform="translate(-598.56 -530.14)"/><path class="cls-2" d="M667.41,547.78a5,5,0,0,1-1.87-.34,4.18,4.18,0,0,1-1.4-.93,4,4,0,0,1-.88-1.39,4.73,4.73,0,0,1-.3-1.69v-.33a5.6,5.6,0,0,1,.29-1.87,4.27,4.27,0,0,1,.84-1.46,3.75,3.75,0,0,1,1.32-1,4.22,4.22,0,0,1,1.74-.35,4.38,4.38,0,0,1,1.71.32,3.39,3.39,0,0,1,1.24.9,3.87,3.87,0,0,1,.75,1.39,6,6,0,0,1,.26,1.81v1h-5.72a2.56,2.56,0,0,0,.23.8,2,2,0,0,0,1.11,1,2.47,2.47,0,0,0,.84.14,3,3,0,0,0,1.21-.24,2.59,2.59,0,0,0,1-.76l1.18,1.32a4.19,4.19,0,0,1-.54.59,3.35,3.35,0,0,1-.77.52,4,4,0,0,1-1,.37A5.09,5.09,0,0,1,667.41,547.78Zm-.27-7.38a1.67,1.67,0,0,0-.69.14,1.55,1.55,0,0,0-.5.38,2.14,2.14,0,0,0-.35.59,3.43,3.43,0,0,0-.19.75h3.34v-.19a2.69,2.69,0,0,0-.1-.66,1.53,1.53,0,0,0-.3-.53,1.26,1.26,0,0,0-.49-.35A2,2,0,0,0,667.14,540.4Z" transform="translate(-598.56 -530.14)"/></svg>