<svg id="Stryke_Force_copy" data-name="Stryke Force copy" xmlns="http://www.w3.org/2000/svg" width="684.34" height="198.66" viewBox="0 0 684.34 198.66"><defs><style>.cls-1{fill:#231f20;}.cls-2{fill:#1b75bb;}.cls-3{fill:none;}</style></defs><title>logo</title><path class="cls-1" d="M907.74,397.21H823.45v12.54H895v18.5H824.51a16.45,16.45,0,0,0,6.54,9.22q4.73,3.21,13.87,3.21h62.82V460H844.49a48.32,48.32,0,0,1-17.16-2.87A36.57,36.57,0,0,1,814.41,449a35,35,0,0,1-8.13-12.81,48.32,48.32,0,0,1-2.82-17V377.86H907.74Z" transform="translate(-340.2 -284.37)"/><path class="cls-1" d="M791.42,397.21H708.83V419q0,21.74,21.47,21.73h61.12V460H729.88a50.92,50.92,0,0,1-17.43-2.77,34.55,34.55,0,0,1-12.92-8,34.19,34.19,0,0,1-8-12.86,50.84,50.84,0,0,1-2.71-17.17V377.86H791.42Z" transform="translate(-340.2 -284.37)"/><path class="cls-1" d="M598.35,409.75H645q6.06,0,9.52-3.24t4.41-9.3H589.11V460h-20V377.86H678.29V393.6q0,31.14-30.3,34.33L679.24,460H655l-31.68-31.78h-25Z" transform="translate(-340.2 -284.37)"/><path class="cls-2" d="M559.8,303.72H522.07v62.82h-20V303.72H488.27q-13.08,0-14.14,12.54H455.32q2.55-31.89,36.14-31.89H559.8Z" transform="translate(-340.2 -284.37)"/><path class="cls-3" d="M488.17,406.92c-5.51-6.65-13.29-20.2-17.39-22.42C476.29,391.15,484.07,404.7,488.17,406.92Z" transform="translate(-340.2 -284.37)"/><path class="cls-3" d="M468.92,366.22A11,11,0,0,1,466,362.8C459.34,365.41,466.3,365.79,468.92,366.22Z" transform="translate(-340.2 -284.37)"/><path class="cls-3" d="M468.92,366.22a2.92,2.92,0,0,0,.89.36C469.93,366.43,469.55,366.33,468.92,366.22Z" transform="translate(-340.2 -284.37)"/><path class="cls-3" d="M481.79,383.07c2.37,2.53,7.06,11.34,8,9.52C487.44,390.05,482.75,381.25,481.79,383.07Z" transform="translate(-340.2 -284.37)"/><path class="cls-3" d="M482.62,421.9c-5.95-2.52-17.49-4.35-26-4.11.57,6.22,1.26,12.46,5.21,19.22Z" transform="translate(-340.2 -284.37)"/><path class="cls-3" d="M455.78,415.11c8.61,1.93,23.81,4.27,28.47,4.52C475.64,417.7,460.44,415.36,455.78,415.11Z" transform="translate(-340.2 -284.37)"/><path class="cls-3" d="M483.93,405.62c-5.16-6.12-9.81-15.51-15.3-19.56-3.32,5.82-9.15,11.24-9.13,17.59C466.52,403,480.85,409,483.93,405.62Z" transform="translate(-340.2 -284.37)"/><path class="cls-3" d="M496.45,398.71c1.61-8.83,4.07-17.54,3.6-26.71-6.32,1.15-12.65,2.39-19.23,5.2Q488.64,388,496.45,398.71Z" transform="translate(-340.2 -284.37)"/><path class="cls-3" d="M452.48,375.89c1.36-.31,7.46,2.05,4.95.78-1.3-1.14-2.86-.68-4-2.54-2.46.88-1.12,2.36-3.07,3.32,1.13,1.25,4.67,7.43,4.37,4.5C453.34,379.83,450.5,377.47,452.48,375.89Z" transform="translate(-340.2 -284.37)"/><path class="cls-3" d="M485.1,410.24c-.33-2.61-7.82-3.14-12.7-3.91-5.56-.88-12-2-15-1.12C466.67,406.44,476.1,407,485.1,410.24Z" transform="translate(-340.2 -284.37)"/><path class="cls-3" d="M462.67,439.68c7.31-6,17.9-11.54,23.14-17.9l-12.19,8.85C470.37,433.71,463.88,436.28,462.67,439.68Z" transform="translate(-340.2 -284.37)"/><path class="cls-3" d="M480.77,357.53c4.87,7.43,4.07,2.92-.33-2-1.6,2.06-2.59.34-4.1,1.89C478,360.44,478.2,355.51,480.77,357.53Z" transform="translate(-340.2 -284.37)"/><path class="cls-3" d="M517.89,399.57c5.16-4.47,13.58-8.42,16.68-13.22C529.41,390.82,521,394.78,517.89,399.57Z" transform="translate(-340.2 -284.37)"/><path class="cls-3" d="M516.45,412.67c7.54-6.21,18.37-11.9,23.86-18.43l-12.2,8.85C524.62,406.35,517.88,409.09,516.45,412.67Z" transform="translate(-340.2 -284.37)"/><path class="cls-3" d="M528.59,360c-.09,2.91-1.36,9.41,2.34,9.26-1.22.05-2.93-6.51-.9-10.3-1.31.23-2.45-.56-3.52-1.82-1.26,1.07-2,2.21-1.83,3.51C526.24,359,526.57,357.43,528.59,360Z" transform="translate(-340.2 -284.37)"/><path class="cls-3" d="M437.4,423c-.35-2.85,5-1.17,4.5-4.36-2.07,2.38-3.53.93-5.54,2.93,1.14,1.23.34,2.17,1.36,3.39,6.81-3.19,10.53,13.23,7.43,1.17C442.78,423.76,439.74,425.6,437.4,423Z" transform="translate(-340.2 -284.37)"/><path class="cls-3" d="M445,403.25a33.65,33.65,0,0,1-7.11.78,4.43,4.43,0,0,1-.58,3.71c5.88,3.85,7.59,2.61.71-.52.9-.91.35-2.06,1.11-3,2.16,1.09,4.63.19,7.1-.77C448.06,397.78,447.52,397.69,445,403.25Z" transform="translate(-340.2 -284.37)"/><path class="cls-3" d="M516.44,424.72c8.2,1.86,23,4.13,27.23,4.32C535.47,427.18,520.69,424.91,516.44,424.72Z" transform="translate(-340.2 -284.37)"/><path class="cls-3" d="M503.24,371.87c-1.92,8.61-4.26,23.82-4.51,28.48C500.65,391.73,503,376.53,503.24,371.87Z" transform="translate(-340.2 -284.37)"/><path class="cls-3" d="M513,374.68c-1.86,8.2-4.13,23-4.32,27.23C510.49,393.71,512.76,378.93,513,374.68Z" transform="translate(-340.2 -284.37)"/><path class="cls-3" d="M492.43,360c1.94-1.1.32-5.63,1.7-6.71,2.46-1.95,3.07,3,4.36,4.49,3.3,3.75-2.64-7.18-1.69-5.34C490.39,352.45,492.69,359.86,492.43,360Z" transform="translate(-340.2 -284.37)"/><path class="cls-3" d="M512.74,400c6.11-5.17,15.5-9.82,19.55-15.31-5.75-3.72-11.18-9.49-17.59-9.13C515.36,382.61,509.36,396.94,512.74,400Z" transform="translate(-340.2 -284.37)"/><path class="cls-3" d="M507.68,359.88c1.57-2.07,1.26-4.45,4.17-6.32.52.73,1.2.44,1.76.92-.78,4.58,2.09,2.07.19-1.24-1.61.85-2.81-.92-4.43-.07.37,2.39-1.25,4.46-2.93,6.52-1.63.6-6.06-1.36-5.87,1C503.11,359.33,505.08,361.56,507.68,359.88Z" transform="translate(-340.2 -284.37)"/><path class="cls-3" d="M520.16,413.26c8.61.4,16.87,3,25.48,3.4.06-6.34-2.06-13-4.49-19.75C534.56,402.43,524.69,407.42,520.16,413.26Z" transform="translate(-340.2 -284.37)"/><path class="cls-3" d="M537.74,446.5c3.58-4.18,8.52-14.6,7.5-15.31C545,435.31,535.28,446.81,537.74,446.5Z" transform="translate(-340.2 -284.37)"/><path class="cls-3" d="M517.29,415.34c9.28-1.17,20.82,4.74,28.15,2.56C536.28,418.31,524.69,412.68,517.29,415.34Z" transform="translate(-340.2 -284.37)"/><path class="cls-3" d="M516.76,426.68l15.63,21.51c6.16-5.16,8.61-10.9,10.89-16.68C534.72,428.16,525.65,428,516.76,426.68Z" transform="translate(-340.2 -284.37)"/><path class="cls-3" d="M520.34,436.13c2.72,3,7.75,12.36,9,10.95C526.68,444.11,521.65,434.72,520.34,436.13Z" transform="translate(-340.2 -284.37)"/><path class="cls-3" d="M557.05,400.7c1-.68,2.62-2.15.91-1.76C552.75,404.75,559.79,413.24,557.05,400.7Z" transform="translate(-340.2 -284.37)"/><path class="cls-3" d="M547.79,415.1c.07-2.93-.12-10.1-3.51-13.88C546.55,405.94,547.67,419.64,547.79,415.1Z" transform="translate(-340.2 -284.37)"/><path class="cls-3" d="M565.18,425.47c-5.41.83-6.77-5.54-7.69-7.57.47,2-.64,3.71,1,5.87,1.82,1.83,4.17.4,5.8,3.45-.72.53-.43,1.2-.92,1.76-1.36.27-7.94,1-5.34,1.69a34.2,34.2,0,0,1,7.1-.77C562.81,428.05,565.89,427.06,565.18,425.47Z" transform="translate(-340.2 -284.37)"/><path class="cls-3" d="M461,466.07c-.36-.4-.72-.77-1.24-.19C465,469.18,469.32,460.49,461,466.07Z" transform="translate(-340.2 -284.37)"/><path class="cls-3" d="M505.68,432.54c5.51,6.65,13.29,20.2,17.39,22.42C517.56,448.31,509.78,434.76,505.68,432.54Z" transform="translate(-340.2 -284.37)"/><path class="cls-3" d="M493.63,432.53c-1.8,7.79-4,22.16-4.12,26C491.31,450.74,493.51,436.37,493.63,432.53Z" transform="translate(-340.2 -284.37)"/><path class="cls-3" d="M491.74,428.42c4.38-4.74,4.54,1.28,5.47,1.51-.85-1.62.92-2.82.07-4.43C495.88,425.94,491.44,425.53,491.74,428.42Z" transform="translate(-340.2 -284.37)"/><path class="cls-3" d="M470.16,448.49c5.21,5.82,11,7.78,16.68,10.89,2.39-8.72,2.48-17.8,4.83-26.52Z" transform="translate(-340.2 -284.37)"/><path class="cls-3" d="M505.1,436.25c-.41,8.61-3,16.87-3.41,25.48,6.36-1.42,12.42-1,19.23-5.2C515.58,450.17,510.76,440.54,505.1,436.25Z" transform="translate(-340.2 -284.37)"/><path class="cls-3" d="M492.26,429.14l-12.9,9.38c-3.5,3.25-10.23,6-11.67,9.57C475.47,441.71,486.54,435.85,492.26,429.14Z" transform="translate(-340.2 -284.37)"/><path class="cls-3" d="M479.21,471.49c-2.28,1.36-2.91,5.18-5.54,2.93-.41-1.53,1.17-8.12.26-5.67-.57,2.24-1.93,4.35-.46,6.91,1.42-.91,2.22,2,3.72.59C475.57,474.66,482.06,471.18,479.21,471.49Z" transform="translate(-340.2 -284.37)"/><path class="cls-3" d="M502,463.68a50.51,50.51,0,0,0,13.69-2.27C514.6,460.91,501.23,463,502,463.68Z" transform="translate(-340.2 -284.37)"/><path class="cls-3" d="M499.69,430.32c1.61-6.44,5.39-5.8,10-2.86-.57-2.84-3.61-6.07-.58-8.34,1.52,1.05,3.3.52,5.15-.46-2.78-3-5-.94-6.13-5.41,1.17-1.51,5.83-2.46,3.26-4.56-1.24-1.52-3.26,1.91-4.82,2.41a4.14,4.14,0,0,0-2.28-1.63c-2.23-2.26,1.26-3.61-1-5.87-3.69,1.54-.6,4.14-3.46,5.8-2.85,1.94-4.44-4-7.23-2.41-1.05,1.52,3.08,3.87,1.69,5.34-.49,4.08-5.9.26-6.26,3.45,1.67,2.87,4.27-.23,5.8,3.46,1.74,2.39-4.58,3.5-2.22,6,2.57-.15,5.55-3,7.63-.06C498.46,426.74,497.71,428.31,499.69,430.32Z" transform="translate(-340.2 -284.37)"/><path class="cls-3" d="M509.64,475.68c-1.46,1.67.48,3.88-2.74,5.27-.52-.72-1.2-.43-1.76-.91-1.41-8.27-3-4.1.32,2,1.71-1.41,3-.49,4.63-1.17C508.37,479.23,510.82,473.15,509.64,475.68Z" transform="translate(-340.2 -284.37)"/><path class="cls-3" d="M499.22,461.34c1.86-8.21,4.13-23,4.31-27.24C501.67,442.3,499.41,457.09,499.22,461.34Z" transform="translate(-340.2 -284.37)"/><path d="M560.1,421.49c0-1.48-.39-3,.07-4.43,2.69-2.3,4.8-1,7.49-3.26-1-1.84-1.51-3.62-.45-5.15-2.52-2.78-5.79-.83-8.47-2.61.56-1.81-1.59-4.06.26-5.66,2.07-2.39,3.53-.94,5.54-2.93-2.06-2.45-1.18-4.42-2.73-6.78-2.82.44-5.88,2.39-8.34.58,1-.91-.6-2.21-1.37-3.39,1.3-2.12,2.25-4.3,5.41-6.12-1.77-2.14-3.34-5.62-5.4-5.93-2.41,1.82-4.84,3.85-6.78,2.73-.87-1.2-1.74-2.39-2.6-3.59,1.36-1.89,1.38-4,3.45-5.79-2.16-2.37-4.22-5.43-6.84-4.9.86,1.83-3.32,2.86-4.5,4.37-1.41-.41-2.62-2.13-4-2.54.15-2.31-.49-4.74,1.7-6.71-1.93-2.46-4.38-1.72-6.32-4.18-2.34,2.17-2.43,4.69-6.13,6.64-1.07-2.59-3,.06-4-2.54-.58-2.42.65-4.55-.78-7.1-2.43.63-4.48-1.09-6.91-.46-.12,2.31-.32,4.6-2.93,6.51a8,8,0,0,1-5-.78c-.38-2.18-1.42-4.46-1.49-6.58-2.7,1-5-.51-7.82,1.3.32,2.59,1.27,5.27-1.18,7.43-1.27-1.34-3.16,1.26-4.43-.07l-4.17-5.74c-2.28,1.08-4.49,1.66-6.78,2.73,1.07,2.5,2.32,5,.78,7.11l-3.58,2.6c-2-2.08-4.2-2.89-6.13-5.41L459.91,365c2.12,2.87,3.81,5.68,2.54,8l-3.59,2.61c-1.84-1.76-3.95-1.79-5.8-3.46a22.68,22.68,0,0,0-4.69,5.6l4.69,6.46c-2.46.88-1.13,2.36-3.07,3.32-2.39.43-4.58-.42-6.71-1.7-1.57,2.5-3.16,5-3.13,7.75,2.13-.09,3.91,2,5.8,3.46-.8,1.56-.84,3.25-2,4.76-2.7,1-5.08,0-7.83,1.3.64,2.42-1.08,4.48-.45,6.9,2.66-.78,4.85,1.43,7.23,2.42-1.79,1.41,1,3.54-.78,4.95a23.49,23.49,0,0,1-7.31,2c1.27,2.73.32,5.12,1.31,7.81a6.67,6.67,0,0,1,7.42,1.18c-.67,1.16,1.9,2.84.65,3.91L437.72,437c2.44,2.29,1,4,3.45,6.26,2.7-1,5.37-1.88,7.62-.07,2.67,3.6-.4,6.29-3.33,9l4.17,5.73c2.61-1.78,5.17-3.24,7.3-2a5,5,0,0,0,2.8,2.34c-1,2.38-1.36,4.86-3.65,7,1.84,1.73,3.76,3,5.6,4.7l6.45-4.7c1.19,1.87,2.74,1.41,4,2.55-.6,2.65-2.1,5.16-.65,8.14a16.86,16.86,0,0,0,6,2.22c.46-2.25,2.63-4.24,4.18-6.32,1.29,2.5,3.3.5,4.75,2-1.24,5.91,1,9.91,7.69,7.56a16.88,16.88,0,0,1,2.21-6c1.76.91,4-1.17,5.48,1.51,2.37,2.28.44,3.87,2.21,6.06,2.44-.76,4.66,0,7.1-.78-.08-2.55-.76-5.2,1.18-7.43,1.64.34,3.74-2.24,5.15-.45,2.1,2.24,2.63,4.22,3.45,6.26,2.45-2.15,4.56-2.1,6.78-2.74-.45-2.82-2.39-5.88-.59-8.34a5.76,5.76,0,0,0,4.11-1.89c1.52,2.43,3.47,2.12,4.89,5.22,2.15-1.56,4.29-3.13,6.45-4.69-1.83-2.4-3.86-4.84-2.74-6.78a5.79,5.79,0,0,0,3.07-3.32c1.93,2.49,4.54.68,6.32,4.17,2.08-2.2,4.86-4.3,4.89-6.84-2,.65-3.21-3.81-4.89-5.21,2.57-1.07,1.21-2.77,3.79-3.84s4.72,2.21,7.42,1.17c-.74-2.23,1.63-4,2.22-6-2-2.31-4.31-2.13-6.12-5.41,1.14-1.3.68-2.86,2.54-4,2.45-.76,4.66,0,7.11-.78a12.4,12.4,0,0,1,1-6.19C565,422.52,562.14,424.61,560.1,421.49ZM437.72,425c-1-1.22-.22-2.16-1.36-3.39,2-2,3.47-.55,5.54-2.93.52,3.19-4.85,1.51-4.5,4.36,2.34,2.61,5.38.77,7.75,3.13C448.25,438.18,444.53,421.76,437.72,425Zm8.48-21.5c-2.47,1-4.94,1.86-7.1.77-.76.94-.21,2.09-1.11,3,6.88,3.13,5.17,4.37-.71.52a4.43,4.43,0,0,0,.58-3.71,33.65,33.65,0,0,0,7.11-.78C447.52,397.69,448.06,397.78,446.2,403.45Zm94.11-9.21c-5.49,6.53-16.32,12.22-23.86,18.43,1.43-3.58,8.17-6.32,11.66-9.58Zm-22.42,5.33c3.1-4.79,11.52-8.75,16.68-13.22C531.47,391.15,523.05,395.1,517.89,399.57Zm8.62-42.41c1.07,1.26,2.21,2,3.52,1.82-2,3.79-.32,10.35.9,10.3-3.7.15-2.43-6.35-2.34-9.26-2-2.59-2.35-1-3.91.65C524.46,359.37,525.25,358.23,526.51,357.16Zm5.78,27.56c-4,5.49-13.44,10.14-19.55,15.31-3.38-3.09,2.62-17.42,2-24.44C521.11,375.23,526.54,381,532.29,384.72ZM543.67,429c-4.24-.19-19-2.46-27.23-4.32C520.69,424.91,535.47,427.18,543.67,429Zm-35-27.13c.19-4.24,2.46-19,4.32-27.23C512.76,378.93,510.49,393.71,508.63,401.91Zm-2.19-42.22c1.68-2.06,3.3-4.13,2.93-6.52,1.62-.85,2.82.92,4.43.07,1.9,3.31-1,5.82-.19,1.24-.56-.48-1.24-.19-1.76-.92-2.91,1.87-2.6,4.25-4.17,6.32-2.6,1.68-4.57-.55-7.11.78C500.38,358.33,504.81,360.29,506.44,359.69Zm-3.2,12.18c-.25,4.66-2.59,19.86-4.51,28.48C499,395.69,501.32,380.48,503.24,371.87Zm-6.44-19.42c-.95-1.84,5,9.09,1.69,5.34-1.29-1.46-1.9-6.44-4.36-4.49-1.38,1.08.24,5.61-1.7,6.71C492.69,359.86,490.39,352.45,496.8,352.45ZM500.05,372c.47,9.17-2,17.88-3.6,26.71Q488.64,388,480.82,377.2C487.4,374.39,493.73,373.15,500.05,372Zm-10.24,20.59c-1,1.82-5.65-7-8-9.52C482.75,381.25,487.44,390.05,489.81,392.59Zm-9.37-37c4.4,4.88,5.2,9.39.33,2-2.57-2-2.73,2.91-4.43-.07C477.85,355.91,478.84,357.63,480.44,355.57Zm7.73,51.35c-4.1-2.22-11.88-15.77-17.39-22.42C474.88,386.72,482.66,400.27,488.17,406.92ZM466,362.8a11,11,0,0,0,2.95,3.42c.63.11,1,.21.89.36a2.92,2.92,0,0,1-.89-.36C466.3,365.79,459.34,365.41,466,362.8Zm2.66,23.26c5.49,4.05,10.14,13.44,15.3,19.56-3.08,3.37-17.41-2.62-24.43-2C459.48,397.3,465.31,391.88,468.63,386.06Zm3.77,20.27c4.88.77,12.37,1.3,12.7,3.91-9-3.23-18.43-3.8-27.75-5C460.38,404.36,466.84,405.45,472.4,406.33Zm13.41,15.45c-5.24,6.36-15.83,11.87-23.14,17.9,1.21-3.4,7.7-6,10.95-9.05ZM454.69,382c.3,2.93-3.24-3.25-4.37-4.5,1.95-1,.61-2.44,3.07-3.32,1.18,1.86,2.74,1.4,4,2.54,2.51,1.27-3.59-1.09-4.95-.78C450.5,377.47,453.34,379.83,454.69,382Zm29.56,37.68c-4.66-.25-19.86-2.59-28.47-4.52C460.44,415.36,475.64,417.7,484.25,419.63Zm-27.63-1.84c8.51-.24,20.05,1.59,26,4.11L461.83,437C457.88,430.25,457.19,424,456.62,417.79Zm3.17,48.09c.52-.58.88-.21,1.24.19C469.32,460.49,465,469.18,459.79,465.88Zm7.9-17.79c1.44-3.58,8.17-6.32,11.67-9.57l12.9-9.38C486.54,435.85,475.47,441.71,467.69,448.09Zm9.5,28.16c-1.5,1.42-2.3-1.5-3.72-.59-1.47-2.56-.11-4.67.46-6.91.91-2.45-.67,4.14-.26,5.67,2.63,2.25,3.26-1.57,5.54-2.93C482.06,471.18,475.57,474.66,477.19,476.25Zm9.65-16.87c-5.64-3.11-11.47-5.07-16.68-10.89l21.51-15.63C489.32,441.58,489.23,450.66,486.84,459.38Zm2.67-.85c.13-3.84,2.32-18.21,4.12-26C493.51,436.37,491.31,450.74,489.51,458.53Zm7.7-28.6c-.93-.23-1.09-6.25-5.47-1.51-.3-2.89,4.14-2.48,5.54-2.92C498.13,427.11,496.36,428.31,497.21,429.93Zm-5.6-4.7c-2.36-2.49,4-3.6,2.22-6-1.53-3.69-4.13-.59-5.8-3.46.36-3.19,5.77.63,6.26-3.45,1.39-1.47-2.74-3.82-1.69-5.34,2.79-1.63,4.38,4.35,7.23,2.41,2.86-1.66-.23-4.26,3.46-5.8,2.23,2.26-1.26,3.61,1,5.87a4.14,4.14,0,0,1,2.28,1.63c1.56-.5,3.58-3.93,4.82-2.41,2.57,2.1-2.09,3.05-3.26,4.56,1.18,4.47,3.35,2.41,6.13,5.41-1.85,1-3.63,1.51-5.15.46-3,2.27,0,5.5.58,8.34-4.58-2.94-8.36-3.58-10,2.86-2-2-1.23-3.58-.45-5.15C497.16,422.25,494.18,425.08,491.61,425.23Zm7.61,36.11c.19-4.25,2.45-19,4.31-27.24C503.35,438.35,501.08,453.13,499.22,461.34ZM505.46,482c-3.36-6.06-1.73-10.23-.32-2,.56.48,1.24.19,1.76.91,3.22-1.39,1.28-3.6,2.74-5.27,1.18-2.53-1.27,3.55.45,5.15C508.5,481.51,507.17,480.59,505.46,482ZM502,463.68c-.79-.67,12.58-2.77,13.69-2.27A50.51,50.51,0,0,1,502,463.68Zm-.33-1.95c.41-8.61,3-16.87,3.41-25.48,5.66,4.29,10.48,13.92,15.82,20.28C514.11,460.77,508.05,460.31,501.69,461.73Zm4-29.19c4.1,2.22,11.88,15.77,17.39,22.42C519,452.74,511.19,439.19,505.68,432.54Zm14.66,3.59c1.31-1.41,6.34,8,9,10.95C528.09,448.49,523.06,439.1,520.34,436.13Zm12,12.06-15.63-21.51c8.89,1.3,18,1.48,26.52,4.83C541,437.29,538.55,443,532.39,448.19Zm5.35-1.69c-2.46.31,7.25-11.19,7.5-15.31C546.26,431.9,541.32,442.32,537.74,446.5Zm-20.45-31.16c7.4-2.66,19,3,28.15,2.56C538.11,420.08,526.57,414.17,517.29,415.34Zm2.87-2.08c4.53-5.84,14.4-10.83,21-16.35,2.43,6.73,4.55,13.41,4.49,19.75C537,416.25,528.77,413.66,520.16,413.26Zm27.63,1.84c-.12,4.54-1.24-9.16-3.51-13.88C547.67,405,547.86,412.17,547.79,415.1ZM558,398.94c1.71-.39.13,1.08-.91,1.76C559.79,413.24,552.75,404.75,558,398.94Zm7.15,31a34.2,34.2,0,0,0-7.1.77c-2.6-.72,4-1.42,5.34-1.69.49-.56.2-1.23.92-1.76-1.63-3.05-4-1.62-5.8-3.45-1.62-2.16-.51-3.89-1-5.87.92,2,2.28,8.4,7.69,7.57C565.89,427.06,562.81,428.05,565.11,429.9Z" transform="translate(-340.2 -284.37)"/><path d="M505.69,420.48c2.06-2.57,1-6.7-3.58-9.45C488.77,413.9,499.76,427.89,505.69,420.48Zm-6.39.26c-1.61-2.16-3.84-4.42-1-5.86.69,1.58-1.11,2.78,1.17,4.62.56.48,1.24.19,1.76.92C508.24,413.17,504.21,422.1,499.3,420.74Z" transform="translate(-340.2 -284.37)"/><path class="cls-1" d="M434,428.25H360.19V460h-20V418.79a49.18,49.18,0,0,1,2.77-17,35.21,35.21,0,0,1,8-12.91,35.63,35.63,0,0,1,12.86-8.19,49.06,49.06,0,0,1,17.38-2.87h59.31v19.35H381.66q-9.15,0-13.87,3.24a16.54,16.54,0,0,0-6.54,9.3H434Z" transform="translate(-340.2 -284.37)"/><path class="cls-2" d="M1024.55,366.54H920.28V325.3a48.47,48.47,0,0,1,2.81-17,35.44,35.44,0,0,1,8.13-12.91,36,36,0,0,1,12.92-8.19,48.38,48.38,0,0,1,17.17-2.87h63.24v19.35H961.73q-9.15,0-13.87,3.24a16.59,16.59,0,0,0-6.54,9.3h70.47v18.5H940.26v12.43h84.29Z" transform="translate(-340.2 -284.37)"/><path class="cls-2" d="M825,366.54H805V284.37h20v31.89h31.11L884,284.37h25l-29.31,32.74q14.65,2.76,22.62,12.86t8,27.11v9.46h-20v-10q0-21.78-21.47-21.78H825Z" transform="translate(-340.2 -284.37)"/><path class="cls-2" d="M794.67,284.37v41.35A50.84,50.84,0,0,1,792,342.89a33.23,33.23,0,0,1-20.89,20.88,50.92,50.92,0,0,1-17.43,2.77h-67V347.19h66.54q9.24,0,13.92-3.11a15.58,15.58,0,0,0,6.38-9.22H686.68V284.37h20v31.89h68V284.37Z" transform="translate(-340.2 -284.37)"/><path class="cls-2" d="M597.76,316.26h46.66q6.06,0,9.52-3.24t4.41-9.3H588.51v62.82h-20V284.37H677.69V300.1q0,31.15-30.29,34.34l31.25,32.1H654.41l-31.67-31.78h-25Z" transform="translate(-340.2 -284.37)"/><path class="cls-2" d="M448.55,303.72H381.37q-12.54,0-14.14,12.54H449v15.62q0,34.67-37.41,34.66H348.21V347.19h67.6q12,0,13.92-12.43H348.21V319q0-34.63,37.41-34.65h62.93Z" transform="translate(-340.2 -284.37)"/></svg>