<svg xmlns="http://www.w3.org/2000/svg" data-name="Layer 1" viewBox="0 0 143.46 144"><path d="M100.34 19.35H33.16c-8.36 0-13.07 4.18-14.14 12.54h81.74v15.62c0 23.1-12.47 34.65-37.41 34.65H0V62.82h67.6c8.01 0 12.65-4.15 13.93-12.44H0V34.65C0 11.55 12.47 0 37.41 0h62.92v19.35Z" style="fill:#1b75bb"/><path d="M136.87 112.22H63.11V144H43.13v-41.24c0-6.24.92-11.89 2.76-16.95 1.84-5.06 4.52-9.37 8.03-12.91 3.51-3.54 7.79-6.27 12.86-8.18 5.07-1.91 10.86-2.87 17.38-2.87h59.31v19.34H84.59c-6.09 0-10.72 1.08-13.87 3.24-3.15 2.16-5.33 5.26-6.54 9.3h72.7v18.5Z" style="fill:#f3bb17"/></svg>
