<svg xmlns="http://www.w3.org/2000/svg" width="257" height="257" viewBox="0 0 257 257"><defs><style>.cls-1{fill:#f1ba1b;stroke:#000;}.cls-1,.cls-3,.cls-4,.cls-9{stroke-miterlimit:10;}.cls-2{fill:#231f20;}.cls-3,.cls-4,.cls-9{fill:none;}.cls-3,.cls-4{stroke:#fff;}.cls-3{stroke-width:0.83px;}.cls-4{stroke-width:0.78px;}.cls-5,.cls-6{fill:#fff;}.cls-6{fill-rule:evenodd;}.cls-7{fill:#f5333f;}.cls-8{fill:#ffcd32;}.cls-9{stroke:#231f20;stroke-width:0.27px;}</style></defs><title>ftc8553</title><g id="Layer_1" data-name="Layer 1"><rect class="cls-1" x="0.5" y="0.5" width="256" height="256"/></g><g id="Colors"><path class="cls-2" d="M306.38,350.77c60.66,25.33,126.33,25.33,187,0v35.17c-60.66,25.32-126.35,25.33-187,0Z" transform="translate(-269 -170)"/><path class="cls-2" d="M490.24,383.7a236.41,236.41,0,0,1-180.72,0V355.57a242.29,242.29,0,0,0,180.72,0Z" transform="translate(-269 -170)"/><path class="cls-3" d="M490.24,383.7a236.41,236.41,0,0,1-180.72,0V355.57a242.29,242.29,0,0,0,180.72,0Z" transform="translate(-269 -170)"/><path class="cls-2" d="M349.84,232.43a25,25,0,0,1,25,25,25,25,0,1,1,50,0A25,25,0,0,1,474.82,255c.07-1.4.12-2.81.12-4.24a75.06,75.06,0,0,0-150.12,0c0,1.43,0,2.84.12,4.24a25,25,0,0,1,24.9-22.56" transform="translate(-269 -170)"/><path class="cls-2" d="M374.86,242.71a29.11,29.11,0,0,0-44.43-6.92,71,71,0,0,1,138.9,0,29.11,29.11,0,0,0-44.43,6.92,29,29,0,0,0-50,0" transform="translate(-269 -170)"/><path class="cls-4" d="M374.86,242.71a29.11,29.11,0,0,0-44.43-6.92,71,71,0,0,1,138.9,0,29.11,29.11,0,0,0-44.43,6.92,29,29,0,0,0-50,0Z" transform="translate(-269 -170)"/><polygon class="cls-2" points="128.93 150.39 55.94 84.99 55.94 80 132.82 147.24 128.93 150.39"/><polygon class="cls-2" points="128.47 149.49 105.86 87.45 105.86 77.83 133.29 148.15 128.47 149.49"/><polygon class="cls-2" points="133.29 149.49 128.47 148.15 155.9 76.38 155.9 87.45 133.29 149.49"/><polygon class="cls-2" points="132.82 150.39 128.93 147.24 205.16 80 205.81 84.99 132.82 150.39"/><path class="cls-5" d="M443.55,318.56a43.68,43.68,0,1,1-43.67-43.67,43.67,43.67,0,0,1,43.67,43.67" transform="translate(-269 -170)"/><path class="cls-2" d="M399.88,363.11a44.54,44.54,0,1,1,44.54-44.55A44.6,44.6,0,0,1,399.88,363.11Zm0-87.35a42.81,42.81,0,1,0,42.81,42.8A42.86,42.86,0,0,0,399.88,275.76Z" transform="translate(-269 -170)"/><path class="cls-2" d="M441.05,318.56a41.18,41.18,0,1,1-41.17-41.16,41.17,41.17,0,0,1,41.17,41.16" transform="translate(-269 -170)"/><path class="cls-6" d="M386,291.38c4-2.81,12.82-3.7,18.1-2.39,3.81.94,10.38,6.34,12.64,8.88,5.06,5.69,4.94,15.79,12,18.79,2,.36,2.59-.6,4.09-.69.71,6.49-4.6,11-9.56,6.84-.17,2,.36,7-.68,9.22-1.58-.81-2.1-2.69-4.1-3.08-.11,2.64.79,7.19-.68,9.91-1.74.51-2.3-2.87-4.79-2.73-.22,1.89.52,6.91-1,8.54-.94-1.79-1.4-4.08-4.1-4.1-.78,3.89.6,9.93-3.76,10.25a18.79,18.79,0,0,0-1.36-6.49c-2,4.7-4.13,9.3-10.93,9.22.36-1.9,2.4-3,3.07-4.78,1.75-4.71-.93-12.35.69-17.42.55-1.74,2.4-2.9,2.73-4.45,1-4.83-2.25-9.65-5.47-11.27l1.26-5.8-7.29-7.12Z" transform="translate(-269 -170)"/><path class="cls-7" d="M391.94,307.64s-6.72.2-9.79-.49c-2.27-.51-4.84-3.16-5.15-3.13s.65,2.76,2.08,3.93,4.81,3.7,7.74,4.12l8.51.55Z" transform="translate(-269 -170)"/><path class="cls-8" d="M370.8,299.73s1.4-6.7,7.09-8.22c2.94-.78,8.6-1.49,10.45,2,1.58,3,1.13,6.69,2.76,9.27s9,8.77,9.87,10.28c.74,1.22,1.92,3.8-2.84,3.8a3.86,3.86,0,0,0-2.56.93s-2.45-2.64-8.34-3.32-11.5-1.3-12.1-5.47a18.5,18.5,0,0,0,7.46,2c4.32.23,4.09.17,6.71.17s4.13-1.31.89-3.44-3.45-1.85-5.75-3.12-5.13-6.9-8.6-6.45a12.3,12.3,0,0,0-5,1.55" transform="translate(-269 -170)"/><path class="cls-5" d="M393.36,293.79a3,3,0,0,0,2.52,3.68c3.28.68,3.88-.58,4.31-1.59l-1.34-.68-2.4-1.67Z" transform="translate(-269 -170)"/><path class="cls-9" d="M393.36,293.79a3,3,0,0,0,2.52,3.68c3.28.68,3.88-.58,4.31-1.59l-1.34-.68-2.4-1.67Z" transform="translate(-269 -170)"/><path class="cls-2" d="M391.48,292.2a3.88,3.88,0,0,0,1.12,1,2.68,2.68,0,0,0,1.38.25,15.49,15.49,0,0,1,3.15-.15,2.6,2.6,0,0,1,1.53.76c.39.39.68.83,1,1.15a6.76,6.76,0,0,0,2.71,1.07,3.25,3.25,0,0,1-3.11-.64c-.41-.39-.7-.82-1-1.16a2.06,2.06,0,0,0-1.2-.58,16.19,16.19,0,0,0-3,0,2.67,2.67,0,0,1-1.6-.41,2.43,2.43,0,0,1-.92-1.3" transform="translate(-269 -170)"/><path class="cls-2" d="M399.46,299.81a5.18,5.18,0,0,0-1.71-1.31,7.91,7.91,0,0,0-2-.69,19.49,19.49,0,0,0-4.34-.26,9.34,9.34,0,0,1,4.43-.17,5.22,5.22,0,0,1,3.64,2.43" transform="translate(-269 -170)"/><path class="cls-2" d="M398.94,295.21c0,.91-1,1.21-2.21,1.21s-2.21-.73-2.21-1.64,1-1.23,2.21-1.23a2.82,2.82,0,0,1,2.21,1.66" transform="translate(-269 -170)"/><path class="cls-8" d="M368.21,212.3v-.55a5.13,5.13,0,0,1,2.44-4.61,5.25,5.25,0,0,1-2.3-4.56V202c0-2.36,1.67-5.73,7.14-5.73s7.13,3.37,7.13,5.73v.55a5.25,5.25,0,0,1-2.3,4.56,5.19,5.19,0,0,1,2.44,4.61v.55c0,2.5-1.81,6.17-7.27,6.17s-7.28-3.67-7.28-6.17m5.11-.88v.28c0,1.64,1,2.33,2,2.33h.27c1.07,0,2-.69,2-2.33v-.28a1.81,1.81,0,0,0-2-2h-.27a1.81,1.81,0,0,0-2,2m2-10.68a1.83,1.83,0,0,0-1.89,1.9v.27a1.77,1.77,0,0,0,2,2h.11a1.77,1.77,0,0,0,2-2v-.27a1.84,1.84,0,0,0-1.9-1.9Z" transform="translate(-269 -170)"/><path class="cls-8" d="M389.79,211.23c0,2.19,1,2.8,2,2.8h.27c1.07,0,2-.69,2-2.61v-.27c0-1.92-1-2.61-2.3-2.61h-.14a2.8,2.8,0,0,0-2.44,1.31l-4.39-1.51.49-11.66H399v4.45h-9.36l-.14,3.45a8.27,8.27,0,0,1,2.78-.49c4.64,0,7,2.77,7,6.92v.54c0,4.15-2.36,6.92-7.28,6.92s-7.27-2.44-7.27-6.86v-.38Z" transform="translate(-269 -170)"/><path class="cls-8" d="M406.25,211.23c0,2.19,1,2.8,2,2.8h.27c1.07,0,2-.69,2-2.61v-.27c0-1.92-1-2.61-2.3-2.61h-.14a2.8,2.8,0,0,0-2.44,1.31l-4.39-1.51.49-11.66h13.61v4.45h-9.36l-.13,3.45a8.17,8.17,0,0,1,2.77-.49c4.64,0,7,2.77,7,6.92v.54c0,4.15-2.36,6.92-7.28,6.92s-7.27-2.44-7.27-6.86v-.38Z" transform="translate(-269 -170)"/><path class="cls-8" d="M424.75,214H425c1.07,0,2-.69,2-2.33v-.28a1.81,1.81,0,0,0-2-2h-2.88v-4.45h2.79a1.77,1.77,0,0,0,2-2v-.27a1.83,1.83,0,0,0-1.89-1.9h-.28c-1.06,0-1.89.74-1.89,3.07h-5.11v-.52c0-4.69,2.31-7,7.14-7,5.46,0,7.14,3.37,7.14,5.73v.55a5.25,5.25,0,0,1-2.31,4.56,5.17,5.17,0,0,1,2.44,4.61v.55c0,2.5-1.81,6.17-7.27,6.17-4.83,0-7.27-2.44-7.27-6.86v-.38h5.1c0,2.19,1,2.8,2,2.8" transform="translate(-269 -170)"/><path class="cls-8" d="M327.36,372.7l.05-.17c.72-2.22,2.68-3.2,5.56-2.26s3.94,2.69,3,5.59l-.11.32-2.91-.94c.44-1.35.26-2.12-.81-2.46l-.15,0a1.15,1.15,0,0,0-1.61.68l0,.06c-.24.73-.11,1.18,1.43,1.92,2.49,1.19,3.61,2.47,2.85,4.81l0,.17c-.76,2.34-2.71,3.21-5.64,2.27s-4-2.65-3.08-5.65l.05-.14,2.91.94c-.43,1.32-.14,2,.86,2.31l.15,0c1,.32,1.58-.08,1.77-.66l0-.06c.22-.69,0-1.21-1.5-1.94-2.49-1.2-3.54-2.45-2.78-4.79" transform="translate(-269 -170)"/><path class="cls-8" d="M340.21,383.26l.15,0c1,.29,1.61-.39,1.92-1.47l2.94.81,0,.14c-.86,3.12-2.71,3.84-5.68,3-3.25-.9-4.19-3.06-3-7.25l.18-.62c1.16-4.19,3.07-5.56,6.33-4.66,3,.82,4.18,2.39,3.32,5.51l-.17.6-2.95-.81c.39-1.4.42-2.39-.75-2.71l-.16-.05c-1.47-.4-2.05.86-2.63,2.95l-.17.62c-.58,2.09-.73,3.47.75,3.88" transform="translate(-269 -170)"/><path class="cls-8" d="M348.81,387.93l-3-.67L348.57,375l4.23.95c2.07.46,4.31,1.46,3.54,4.85l-.06.32c-.45,2-1.47,2.79-2.67,3l.85,5-3.22-.72-.66-4.57-.83-.19Zm2.89-6.48c.58.14,1.32.07,1.58-1.09l0-.13c.26-1.16-.38-1.54-1-1.67l-1.37-.3-.65,2.89Z" transform="translate(-269 -170)"/><polygon class="cls-8" points="97.15 208.52 96.69 211.12 91.93 210.29 91.56 212.45 95.52 213.14 95.07 215.74 91.1 215.05 90.69 217.46 95.44 218.29 94.99 220.89 87.22 219.54 89.37 207.16 97.15 208.52"/><path class="cls-8" d="M373.86,379.51l1.43,12.83-3.24-.4-.2-2.59-2.59-.32-.8,2.47-3.26-.41L369.71,379Zm-3.75,7,1.54.19-.3-3.9Z" transform="translate(-269 -170)"/><polygon class="cls-8" points="115.54 223.01 112.39 222.81 111.06 215.46 110.99 217.88 110.67 222.69 107.62 222.5 108.44 209.97 112.98 210.26 114.31 217.61 116.58 210.49 121.13 210.79 120.31 223.32 117.26 223.12 117.57 218.31 117.81 215.9 115.54 223.01"/><rect class="cls-8" x="386.88" y="385.55" width="12.56" height="3.06" transform="translate(-272.53 600.53) rotate(-88.58)"/><polygon class="cls-8" points="137.08 223.41 133.86 223.42 130.36 216.52 130.46 218.93 130.48 223.44 127.58 223.45 127.52 210.89 130.74 210.88 134.23 217.78 134.14 215.37 134.12 210.86 137.02 210.85 137.08 223.41"/><path class="cls-8" d="M407.38,387.43l0-.64c-.2-4.34,1.28-6.25,4.66-6.4,3.07-.14,4.79,1,4.94,4.21l0,.62-3.06.14c-.06-1.45-.35-2.4-1.63-2.34h-.17c-1.6.07-1.77,1.45-1.67,3.62l0,.64c.1,2.17.39,3.53,2.08,3.45h.16a2.93,2.93,0,0,0,1.41-.38l-.07-1.61-1.51.07-.12-2.64L417,386l.27,5.73a6.84,6.84,0,0,1-4.5,1.69c-3.54.15-5.18-1.61-5.38-5.95" transform="translate(-269 -170)"/><polygon class="cls-8" points="160.55 209.14 160.84 211.77 156.04 212.29 156.28 214.47 160.28 214.03 160.56 216.66 156.56 217.09 156.83 219.52 161.63 219 161.91 221.63 154.07 222.48 152.71 210 160.55 209.14"/><path class="cls-8" d="M437.21,378l5,11.91-3.22.52L438,388l-2.57.42-.09,2.59-3.24.52,1-12.87Zm-1.65,7.73,1.52-.25-1.37-3.65Z" transform="translate(-269 -170)"/><path class="cls-8" d="M441.78,383.88l-.13-.63c-.92-4.25.21-6.37,3.51-7.09,3-.65,4.9.16,5.58,3.32l.14.61-3,.65c-.31-1.41-.75-2.31-2-2l-.16,0c-1.57.34-1.5,1.73-1,3.85l.14.64c.46,2.12,1,3.41,2.62,3l.16,0a2.79,2.79,0,0,0,1.33-.62l-.34-1.57-1.48.32-.56-2.58,4.47-1,1.21,5.6a6.74,6.74,0,0,1-4.15,2.42c-3.46.75-5.37-.71-6.3-5" transform="translate(-269 -170)"/><polygon class="cls-8" points="185.41 217.15 182.16 205.02 185.11 204.23 187.68 213.8 191.96 212.66 192.64 215.21 185.41 217.15"/><polygon class="cls-8" points="197.87 200.44 198.66 202.96 194.05 204.4 194.71 206.49 198.55 205.29 199.34 207.81 195.49 209.01 196.23 211.34 200.83 209.9 201.63 212.42 194.09 214.78 190.34 202.79 197.87 200.44"/><path class="cls-8" d="M469.19,373.69l-.06-.17c-.78-2.2.18-4.16,3-5.18s4.77-.26,5.8,2.6l.11.32-2.88,1c-.48-1.34-1.08-1.84-2.15-1.46l-.15.05a1.16,1.16,0,0,0-.86,1.53l0,0c.25.73.63,1,2.29.65,2.71-.56,4.38-.24,5.2,2.08l.06.17c.83,2.32-.19,4.2-3.09,5.24s-4.82.36-5.88-2.61l-.05-.13,2.88-1c.46,1.3,1.11,1.66,2.09,1.31l.15-.06c1-.35,1.21-1,1-1.6l0-.06c-.24-.69-.7-1-2.37-.62-2.7.56-4.3.21-5.13-2.11" transform="translate(-269 -170)"/></g></svg>