<svg id="Layer_1" data-name="Layer 1" xmlns="http://www.w3.org/2000/svg" width="509.81" height="302.99" viewBox="0 0 509.81 302.99"><defs><style>.cls-1{fill-rule:evenodd;}</style></defs><title>2767</title><path class="cls-1" d="M601.63,436.14c1.82,2.09,1.19,8-1.26,9.47-3.08-1.44-5.75-3.3-5.68-7.89C596.78,437,598.71,436.06,601.63,436.14Zm-4.42,2.53c.32,1.78,1.47,2.74,2.53,3.78a26.88,26.88,0,0,1,.63-4.42C599.11,438,598.47,438.66,597.21,438.67Z" transform="translate(-385.09 -361.02)"/><path class="cls-1" d="M603.21,445.29c.54-3.77-.22-7.64,2.84-8.2,2-.37,6,2.47,6,4.42C612,444.27,605.73,447.23,603.21,445.29Zm3.16-6a14.81,14.81,0,0,1-.64,4.1,13.07,13.07,0,0,0,3.79-2.52C608.56,440.35,607.32,438.82,606.37,439.3Z" transform="translate(-385.09 -361.02)"/><path class="cls-1" d="M598.16,447.82c-.49-.87-.87,1-1.26,1.26a63.57,63.57,0,0,1-9.15-1.58c.61-3.49,2.13-7.59,5-7.26,2.71.32,3.16,5,5.37,6.63.43-.43,2.2-.6,2.21.32.58-.48.79-1.32,1.58-1.58,1,0,1.39.72,1.26,1.89,4.2,1.38,6.09-3,10.1-4.42,1.62,1.85,3.76,3.19,3.16,7.26-2.39,2.92-9,.89-11.05-1.26-.89,1.05,1.35,1,1,2.53-.66.18-.9.78-1.9.63a2,2,0,0,1,0,2.21c-2.5-1.24-2.92,2.2-5.05.31.65,2.28.2,7.65-1.58,9.47-3.08-.57-7.1-2.37-6.94-4.73.17-2.54,5.19-3.45,6.94-5.37-.18-1.17-.52-1.83.32-2.52,0-.59-1.07-.2-1.26-.64C596.15,448.76,598.58,449.71,598.16,447.82ZM590,445.61c1.93-.24,3,2,4.74.95-1.21-1.11-1.58-3.06-3.16-3.79C591.3,444,590.3,444.48,590,445.61Zm19.57,3.15c1.64.05,2.78.59,4.42.64C614.25,444.55,611.15,447.3,609.52,448.76Zm-9.15,3.16c1-.15,1.11.57,2.21.32-.07-1,.56-1.34.31-2.53C601.52,448.29,599.29,449.77,600.37,451.92Zm-6.63,8.52a16.59,16.59,0,0,0,2.84,1.58,33.25,33.25,0,0,1,.63-4.1A8.48,8.48,0,0,0,593.74,460.44Z" transform="translate(-385.09 -361.02)"/><path class="cls-1" d="M597.21,452.24c-1.53,2.88-4.33,4.5-7.57,5.68-1.87-1.5-2.47-4.27-2.53-7.58C590,448.43,595.69,449.86,597.21,452.24Zm-7.57,2.84a8.91,8.91,0,0,0,3.79-2.84c-1.19-1.09-2.83.14-4.42-.63C588.91,453.08,589.64,453.71,589.64,455.08Z" transform="translate(-385.09 -361.02)"/><path class="cls-1" d="M605.73,452.87c3.08-1.25,7.38-.05,9.47,1.58,1.17,3.32-2.47,7.6-6,6C606.79,459.34,606.59,455.35,605.73,452.87Zm5.69,5.68a9.46,9.46,0,0,0,1.57-3.16c-1.57.2-3-1.38-4.41-.31C609.63,456.13,610.15,457.71,611.42,458.55Z" transform="translate(-385.09 -361.02)"/><path class="cls-1" d="M601.63,465.49c-2.39-3.45-1.19-10.46,1.9-10.41,1.9,0,5.4,5.73,4.73,8.2C606.16,464.13,605.21,466.12,601.63,465.49Zm1.26-2.52a4.06,4.06,0,0,0,3.16-1c-1.07-.82-1.5-2.28-2.52-3.15A12.88,12.88,0,0,0,602.89,463Z" transform="translate(-385.09 -361.02)"/><path class="cls-1" d="M678,537.45h60c-.72,21.72-41.18,9.87-60.28,12.94v-12C677.67,538,677.64,537.51,678,537.45Z" transform="translate(-385.09 -361.02)"/><path class="cls-1" d="M561.86,565.86c-7-7.15-12.32-15.87-18.62-23.67a3.77,3.77,0,0,1,3.16-2.53C550.24,544.05,555.45,551,560,557,562.23,560,566.25,563.3,561.86,565.86Z" transform="translate(-385.09 -361.02)"/><path class="cls-1" d="M630.67,561.76c-14.73,5-26.35,8-41.66,12.62-.6-.56-.75-1.57-1.26-2.21,13.29-4.9,28.14-8.25,41.66-12.94A5.7,5.7,0,0,1,630.67,561.76Z" transform="translate(-385.09 -361.02)"/><path class="cls-1" d="M575.12,576.27a6,6,0,0,1-1,3.16c-2.63.21-3.48-1.36-3.78-3.47C571.41,574.58,574.37,574.84,575.12,576.27Z" transform="translate(-385.09 -361.02)"/><path class="cls-1" d="M576.07,578.17c1,2.23-3,4.5-5.05,2.84C572.73,581,576.1,580.85,576.07,578.17Z" transform="translate(-385.09 -361.02)"/><path class="cls-1" d="M498.11,592.69c-.27,1.58-.23,2.16,1.26,2.52-4.51.09-11.26-.31-14.83-2.21C489.25,593.08,493.24,592.45,498.11,592.69Z" transform="translate(-385.09 -361.02)"/><path class="cls-1" d="M504.42,595.21c-1.66.32-5-.22-5.36-2.21C501.08,592.31,504.37,592.9,504.42,595.21Z" transform="translate(-385.09 -361.02)"/><path class="cls-1" d="M722.83,601.21c-.79,1.14-2,2-3.16,1.26C716.39,600.44,722.26,596,722.83,601.21Z" transform="translate(-385.09 -361.02)"/><path class="cls-1" d="M667.28,600.26a54.13,54.13,0,0,1,6.63,1.26c-.3,1.45-1.84-.3-2.53.64.08.87,1.78.11,1.58,1.26C670.21,604.75,667.09,603.64,667.28,600.26Z" transform="translate(-385.09 -361.02)"/><path class="cls-1" d="M679.27,604.68c3.63,6-7.8,7.4-5,.32A4,4,0,0,1,679.27,604.68Z" transform="translate(-385.09 -361.02)"/><path class="cls-1" d="M591.22,604.68c3.17,5.3-4.81,6.77-4.74,2.21C586.52,604.55,588.81,603.5,591.22,604.68Z" transform="translate(-385.09 -361.02)"/><path class="cls-1" d="M716.2,605.31c.56,1.69-.09,3.54-1.26,3.79C711.47,609.83,711.5,603.16,716.2,605.31Z" transform="translate(-385.09 -361.02)"/><path class="cls-1" d="M728.51,606.57c.4,1.71-1.86,1.93-2.84,1.27A1.56,1.56,0,1,1,728.51,606.57Z" transform="translate(-385.09 -361.02)"/><path class="cls-1" d="M635.72,606.57a61.57,61.57,0,0,0,6.31,2.21C640.7,611.84,635.23,610,635.72,606.57Z" transform="translate(-385.09 -361.02)"/><path class="cls-1" d="M607.94,610.36c3.72-.34,3.57,5.74.32,6C605.24,616.6,603.2,610.79,607.94,610.36Z" transform="translate(-385.09 -361.02)"/><path class="cls-1" d="M623.09,615.09c-1.82.15-1.57-1.79-3.15-1.89-.38.71,1.09,2.27,2.21,2.53-2.9,2-5.42-1.48-4.74-3.79C618.58,608,626,610.83,623.09,615.09Z" transform="translate(-385.09 -361.02)"/><path class="cls-1" d="M635.4,610.68c3.61,6-5.75,7.76-5.68,2.52C629.75,610.82,632.62,609,635.4,610.68Z" transform="translate(-385.09 -361.02)"/><path class="cls-1" d="M644.56,610.36c5.93-1.84,4.93,7.66-.32,6C642.69,615.87,641,611.48,644.56,610.36Z" transform="translate(-385.09 -361.02)"/><path class="cls-1" d="M657.18,610.36c5.14-1.35,5,6.4.63,6C655.32,616.12,653.33,611.38,657.18,610.36Z" transform="translate(-385.09 -361.02)"/><path class="cls-1" d="M595,610.68c4.11-.92,3.59,5.2.63,5.36C592.92,616.19,591.23,611.52,595,610.68Z" transform="translate(-385.09 -361.02)"/><path class="cls-1" d="M680.54,612.57c.56,0,.66.39,1.26.32.82-.43-.2-2.21.31-2.21C690.41,609.21,682.1,621.91,680.54,612.57Z" transform="translate(-385.09 -361.02)"/><path class="cls-1" d="M580.49,614.46c-.91-5.05,4.76-4.36,5-1.57C585.78,615.35,582.34,616.79,580.49,614.46Z" transform="translate(-385.09 -361.02)"/><path class="cls-1" d="M693.48,614.78c-2.26-6.14,7.28-4.24,4.41,0C697.11,616,694.74,616,693.48,614.78Z" transform="translate(-385.09 -361.02)"/><path class="cls-1" d="M672.65,611c3.26,3.23-2.63,7.53-4.74,3.79.56-.64,2,.48,2.84.63C671.94,614.49,671.85,612.3,672.65,611Z" transform="translate(-385.09 -361.02)"/><path class="cls-1" d="M707.05,611.62c3.29-2,4.18,3.61,1.26,3.79A2.09,2.09,0,0,1,707.05,611.62Z" transform="translate(-385.09 -361.02)"/><path class="cls-1" d="M722.51,613.52a2,2,0,0,1-3.15.63C718.49,610.94,722.62,611.09,722.51,613.52Z" transform="translate(-385.09 -361.02)"/><path class="cls-1" d="M624.36,621.72c-2.48-3,2.3-7.27,4.73-4.42C631.27,619.86,628.31,624.72,624.36,621.72Z" transform="translate(-385.09 -361.02)"/><path class="cls-1" d="M642.35,620.78c-2.1-.1-4,0-4.74,1.26C631.92,618.3,643.55,612.6,642.35,620.78Z" transform="translate(-385.09 -361.02)"/><path class="cls-1" d="M653.08,622.35c-.69.06-.15-1.11-.32-1.57-1.29.07-1.66,1.07-2.84,1.26C644.73,614.86,659.61,615.43,653.08,622.35Z" transform="translate(-385.09 -361.02)"/><path class="cls-1" d="M604.16,621.09a2.22,2.22,0,0,0-3.16.32c-.6-.56-.61-1.71-2.21-1.27C598.38,615.18,606.35,616.25,604.16,621.09Z" transform="translate(-385.09 -361.02)"/><path class="cls-1" d="M616.78,617.94c-.31.88-.84-.46-1.26.31a2.34,2.34,0,0,1,.31,3.79c-1.64-1-3.81-1.44-4.41-3.47C611.67,616.45,615.94,615.88,616.78,617.94Z" transform="translate(-385.09 -361.02)"/><path class="cls-1" d="M665.7,616.67c.23.83,1.14,1,1.26,1.9.06,1.24-.48-.1-.94.63,0,.81,1.35.33.94,1.58-2-.56-3.16-1.89-5.36-2.21C662,617,663.46,616.43,665.7,616.67Z" transform="translate(-385.09 -361.02)"/><path class="cls-1" d="M691,617.3a5,5,0,0,1,.63,3.48c-1.83-.16-.87,1.09-1.89,1.26C686.06,622.65,686.22,615.07,691,617.3Z" transform="translate(-385.09 -361.02)"/><path class="cls-1" d="M703.26,621.09c-.31-1.52-1.49-.34-3.16-.63v-2.21A2.13,2.13,0,1,1,703.26,621.09Z" transform="translate(-385.09 -361.02)"/><path class="cls-1" d="M674.54,617.62c1,.67.74,2.63,2.52,2.52,1.5-.08,1-2.2,2.21-2.52-.59,1.24-.81,2.32,0,3.47C677.25,623.55,672.52,621.12,674.54,617.62Z" transform="translate(-385.09 -361.02)"/><path class="cls-1" d="M565.65,618.57a5.28,5.28,0,0,1-.31,2.21,2.49,2.49,0,0,1-2.84-.64C561.94,617.93,564.66,617.35,565.65,618.57Z" transform="translate(-385.09 -361.02)"/><path class="cls-1" d="M715.57,617.94c2.64,5.83-7.14.7,0,0Z" transform="translate(-385.09 -361.02)"/><path class="cls-1" d="M727.88,618.88v1.26c-.94.38-1.07.09-1.9-.31A1.11,1.11,0,0,1,727.88,618.88Z" transform="translate(-385.09 -361.02)"/><path class="cls-1" d="M661.6,619.83c1.28,1,3.56,1.07,4.42,2.52C664,622.24,661.66,622.54,661.6,619.83Z" transform="translate(-385.09 -361.02)"/><path class="cls-1" d="M633.51,623c3.68.66,2.37,5.75-.32,5.68-1.79,0-3.61-2.9-2.52-4.74,1.44,0,.39,2.56,2.52,1.9C634.33,625.63,633.72,623.7,633.51,623Z" transform="translate(-385.09 -361.02)"/><path class="cls-1" d="M608.26,623.3c-.09,1.28-.54,2.19-.63,3.47-.56-.27-1-1-1.26,0-.62-.54-.68-1.63-.64-2.84C606.69,623.83,606.86,623,608.26,623.3Z" transform="translate(-385.09 -361.02)"/><path class="cls-1" d="M582.69,623.93c3.16-.62,2.26,3.65.32,3.79S579.77,624.51,582.69,623.93Z" transform="translate(-385.09 -361.02)"/><path class="cls-1" d="M682.75,623.62c.06,1-.22,2.31.31,2.84a2.83,2.83,0,0,0,.63-2.21c1.37.1,1.21,1.73,1.26,3.16a2.79,2.79,0,0,1-2.52.63c-.46-.92-.32-2.42-1.58-2.53C681.09,624.49,681.38,623.51,682.75,623.62Z" transform="translate(-385.09 -361.02)"/><path class="cls-1" d="M572,624.88c.27,1.74-.62,2.32-1.89,2.53a5.15,5.15,0,0,0-1.26-.95C568.05,624,571,623.71,572,624.88Z" transform="translate(-385.09 -361.02)"/><path class="cls-1" d="M709.26,624.25a1.79,1.79,0,1,1-2.53,2.52Q706.23,623.76,709.26,624.25Z" transform="translate(-385.09 -361.02)"/><path class="cls-1" d="M557.45,624.88c.65-.13.83.21,1.26.31-.18.77-.27,1.63-1.26,1.58A1.52,1.52,0,0,1,557.45,624.88Z" transform="translate(-385.09 -361.02)"/><path class="cls-1" d="M720,624.88h1.58a2.69,2.69,0,0,1-.32,1.89H720A2.16,2.16,0,0,1,720,624.88Z" transform="translate(-385.09 -361.02)"/><path class="cls-1" d="M629.09,631.19a18.37,18.37,0,0,0-2.21.95c-.34,1.4,1.39,1.67.63,2.53-1.09.25-1.21-.47-2.21-.32a43.16,43.16,0,0,1,.32-4.74C627.06,629,629,629.56,629.09,631.19Z" transform="translate(-385.09 -361.02)"/><path class="cls-1" d="M650.55,629.93c4.1-2.16,4.64,4.37,1.58,4.74C649.62,635,648.07,631.24,650.55,629.93Z" transform="translate(-385.09 -361.02)"/><path class="cls-1" d="M678.33,629.93c1.39,1.88.42,4.3-1.27,4.42C674.29,634.53,673.37,628.84,678.33,629.93Z" transform="translate(-385.09 -361.02)"/><path class="cls-1" d="M691.27,633.08c-.78.61-1.67,1.28-2.84.64-.59-.74.32-2,0-3.47C690.17,629.68,691.63,630.67,691.27,633.08Z" transform="translate(-385.09 -361.02)"/><path class="cls-1" d="M577.65,630.56c.26.68.81,1.08.63,2.21-.74.67-2.51,1-3.16,0C574.79,630.87,575.82,630.31,577.65,630.56Z" transform="translate(-385.09 -361.02)"/><path class="cls-1" d="M565,631.51c-.06,1.33-1.2,1.91-1.89.94A1.13,1.13,0,0,1,565,631.51Z" transform="translate(-385.09 -361.02)"/><path class="cls-1" d="M714,631.19h1.26c.13,1.18-.25,1.85-1.26,1.89A1.55,1.55,0,0,1,714,631.19Z" transform="translate(-385.09 -361.02)"/><path class="cls-1" d="M618.36,637.19c3.39-4.08,6.4,3.47,2.21,3.47C619,640.66,618.2,639.52,618.36,637.19Z" transform="translate(-385.09 -361.02)"/><path class="cls-1" d="M632.25,636.24c4.31-1.64,3.36,4.55.63,4.42C631.65,640.6,628.94,637.5,632.25,636.24Z" transform="translate(-385.09 -361.02)"/><path class="cls-1" d="M647.4,636.56c1,2.38-.33,4.13-1.9,4.1C641.87,640.59,643.24,633.74,647.4,636.56Z" transform="translate(-385.09 -361.02)"/><path class="cls-1" d="M659.7,636.56c2.32,3.06-2.38,5.66-3.78,2.52.47-.85,1.36.5,1.89.63.16-1.8-2.69-1.32-1.58-3.15,1,.38,1.27,1.46,2.84,1.26-.24-.7-1.1-.79-1.57-1.26C657.77,635.34,658.76,636.61,659.7,636.56Z" transform="translate(-385.09 -361.02)"/><path class="cls-1" d="M609.84,639.4a3.41,3.41,0,0,1-2.84.94C603.22,637.36,610.8,633.63,609.84,639.4Z" transform="translate(-385.09 -361.02)"/><path class="cls-1" d="M597.21,637.19q.42,3.25-2.84,2.84c-.7-.43-.93-2.39-.31-3.16C594.83,636.26,596.78,636.49,597.21,637.19Z" transform="translate(-385.09 -361.02)"/><path class="cls-1" d="M669.17,636.56a8.23,8.23,0,0,0,3.16.31C674.52,641.91,666.11,640.44,669.17,636.56Z" transform="translate(-385.09 -361.02)"/><path class="cls-1" d="M682.11,636.56c1.26-.1,2.34,0,2.84.63.28,2.17-.66,3.12-2.84,2.84A2.38,2.38,0,0,1,682.11,636.56Z" transform="translate(-385.09 -361.02)"/><path class="cls-1" d="M697,637.19c.74,3.33-3.09,2.88-2.84.31A2.67,2.67,0,0,1,697,637.19Z" transform="translate(-385.09 -361.02)"/><path class="cls-1" d="M571,637.5v1.58c-.79,0-1-.49-1.58-.63C569.73,637.9,570,637.35,571,637.5Z" transform="translate(-385.09 -361.02)"/><path class="cls-1" d="M708.94,637.82c.14.66-.22.84-.32,1.26a.92.92,0,1,1,.32-1.26Z" transform="translate(-385.09 -361.02)"/><path class="cls-1" d="M628.14,642.87c0,1,.9,1.21.63,2.52C625.64,649.82,622.51,640.92,628.14,642.87Z" transform="translate(-385.09 -361.02)"/><path class="cls-1" d="M640.77,642.87c1,1.49.31,3.69-1.27,3.79C636.56,646.85,636.39,641.08,640.77,642.87Z" transform="translate(-385.09 -361.02)"/><path class="cls-1" d="M666.33,645.08a2.8,2.8,0,0,1-3.47.94,5.85,5.85,0,0,1-.31-2.52C663.83,642.26,666.69,642.32,666.33,645.08Z" transform="translate(-385.09 -361.02)"/><path class="cls-1" d="M603.21,643.5c.84,2.57-2,3.19-3.16,1.89A1.89,1.89,0,0,1,603.21,643.5Z" transform="translate(-385.09 -361.02)"/><path class="cls-1" d="M616.15,643.5v1.89a3.25,3.25,0,0,1-3.47.63C610.93,643.43,614.53,641.75,616.15,643.5Z" transform="translate(-385.09 -361.02)"/><path class="cls-1" d="M650.55,642.87c.91.88,1.35,2.23,3.16,2.21-.66,2.56-3.18.24-3.79-1C649.69,643.27,650.55,643.5,650.55,642.87Z" transform="translate(-385.09 -361.02)"/><path class="cls-1" d="M675.8,646c-2.7-6.28,7.5-.6,0,0Z" transform="translate(-385.09 -361.02)"/><path class="cls-1" d="M590.27,643.82v1.57c-.54-.62-1-1.34-1.89-1.57C588.88,642.9,589.56,643.44,590.27,643.82Z" transform="translate(-385.09 -361.02)"/><path class="cls-1" d="M690.64,645.39a2.68,2.68,0,0,1-1.9.32C686.61,643.67,691.19,641.89,690.64,645.39Z" transform="translate(-385.09 -361.02)"/><path class="cls-1" d="M701.68,643.82c.51-.09.55.3,1,.31.09.83-.44,1-1.26,1C701.23,644.42,701.58,644.24,701.68,643.82Z" transform="translate(-385.09 -361.02)"/><path class="cls-1" d="M619.62,652.34a2.81,2.81,0,0,1-.63-2.53C621.79,647.31,623.74,652.86,619.62,652.34Z" transform="translate(-385.09 -361.02)"/><path class="cls-1" d="M634.46,649.5c-.06.36.06.56.31.63.15,1.83-1,2.4-2.84,2.21C630.25,650.69,632.25,648.15,634.46,649.5Z" transform="translate(-385.09 -361.02)"/><path class="cls-1" d="M645.19,649.81c-.78.71,2.25,1.55,1.26,2.53a2.23,2.23,0,0,1-2.53-2.53c1.09-1,3.83-.92,3.16,1.58C646,651.3,646.17,650,645.19,649.81Z" transform="translate(-385.09 -361.02)"/><path class="cls-1" d="M659.7,650.13c.12,1.69-.78,2.37-2.52,2.21C655,650.56,658.57,647.75,659.7,650.13Z" transform="translate(-385.09 -361.02)"/><path class="cls-1" d="M609.21,651.71a2,2,0,0,1-2.53-.32C606.1,648.73,610.06,649,609.21,651.71Z" transform="translate(-385.09 -361.02)"/><path class="cls-1" d="M671.38,649.5a2.28,2.28,0,0,1,.32,2.52h-1.9C668.81,651,669.19,649,671.38,649.5Z" transform="translate(-385.09 -361.02)"/><path class="cls-1" d="M596.58,651.39a1.34,1.34,0,0,1-2.21-1.26C595.44,649.59,596.76,649.83,596.58,651.39Z" transform="translate(-385.09 -361.02)"/><path class="cls-1" d="M684.32,651.08c-.3,0-.24.38-.31.63-1.29.13-2-.33-1.9-1.58C683.09,649.65,684.31,649.76,684.32,651.08Z" transform="translate(-385.09 -361.02)"/><path class="cls-1" d="M627.83,656.13V658a1.53,1.53,0,0,1-2.21-1.58C626.41,656,626.86,655.68,627.83,656.13Z" transform="translate(-385.09 -361.02)"/><path class="cls-1" d="M652.45,658.33c-.68-.37-1.72-.38-1.9-1.26C651,654.4,654.58,656.8,652.45,658.33Z" transform="translate(-385.09 -361.02)"/><path class="cls-1" d="M615.2,658c-1.28.13-2-.32-1.89-1.58C614.32,655.59,615.72,656.37,615.2,658Z" transform="translate(-385.09 -361.02)"/><path class="cls-1" d="M665.39,656.44a2.09,2.09,0,0,1-.32,1.58c-1.14.09-2.15-.92-1.58-1.58A1.56,1.56,0,0,1,665.39,656.44Z" transform="translate(-385.09 -361.02)"/><path class="cls-1" d="M602.26,656.44v1.26c-.82.09-1.35-.11-1.26-.94A1.76,1.76,0,0,1,602.26,656.44Z" transform="translate(-385.09 -361.02)"/><path class="cls-1" d="M677.7,656.76a1.47,1.47,0,0,0-.32.94c-.83.09-1.36-.11-1.26-.94A1.17,1.17,0,0,1,677.7,656.76Z" transform="translate(-385.09 -361.02)"/><path class="cls-1" d="M646.13,662.75c.14.66-.21.84-.31,1.27-.42-.12-.5-.56-1-.63C645,662.83,645.41,662.67,646.13,662.75Z" transform="translate(-385.09 -361.02)"/><path class="cls-1" d="M490.22,396.06a122,122,0,0,0,43.87,26.19c.56-2.7.3-6.22,1.58-8.2-26.07-8.44-44.92-24.09-51.13-52.39.9-.61,2.16,1.36,3.15,2.52,12.94,15.09,26.47,31.94,46.4,41,3.07,1.4,6.71,3.35,9.47,3.79,6.39,1,12.05-.76,18.62,0-13.79-10.62-37-11.83-37.24-36,9,26.51,45.12,24.76,73.85,32.19,4,1,7.71,3.17,11.36,3.79,8.54,1.43,18.56-1.35,26.2.31,1.4,8.15-.64,15.56-7.58,16.42,2.14,3.86,6.59,5.41,7.89,10.1-3.43-.45-5.9.63-8.2,0-4.63-1.28-6.08-8-10.42-9.47-.5,4.19-.23,10.33,1.58,13.25.14,1.19-1,1.12-1.26,1.9.77.58,2-.52,2.84.94-.2-1.58.41-4-.32-5.05,5.52,1.09,12-.75,17.36.32-.68-1.14-1-6.94-.31-9.47,8.25-.9,20.31,2,25.56-1.89-8.52-.21-17.88.41-25.88-.32.19-5.59-.4-12,.32-17,2.34.18,5.43-.38,7.26.31.71,2.45.12,6.19.31,9.16,5.58.73,12.52.1,18.62.31.9-2.57-.25-7.19.63-9.78,2.35.18,5.43-.38,7.26.31.66,9.92,1.73,23-6.31,25.25.22,1.27-.3,1.8-.31,2.84,2.36.36,7.61.89,9.47-.31.56-1.62-1.14-1-1.27-1.9.21-8.52-.41-17.88.32-25.88,1.78-.35,6.3-.88,7.57.32,25.67-14.1,78.11-1.43,82.06-37.24,6,10.6-4.23,20.11-11.36,25.56a71.35,71.35,0,0,1-19.88,10.73c2.63.74,6.62.11,9.78.32.55.19,0,1.49.63,1.58C771,401.81,793.6,387.4,804.26,361c2.65,22.31-11.47,34.28-25.57,43.24a112.37,112.37,0,0,1-40.08,15.47c-.17,2,.37,4.78-.32,6.31-6.53.73-14.41.11-21.46.32v1.57c5.64-.4,13.7,1.59,20.2.32,1.84-.36,4.28-2.11,6.63-3.16,18.56-8.29,50.72-5.89,54.92-28.72,4.51,12.15-7.24,21.4-16.42,26.2-11.81,6.18-23.41,8.76-39.45,8.52-.63.94-.18,3-.31,4.42-.62.85-3.43-.48-3.16,1.26-.06,1.22,2,.34,2.53,1,.21,1.79-2.68.48-2.84,1.89.79,1.42,4.16.26,6,.63-.46,1-1.17,1.77-1.58,2.84,18.25.47,31.62-6.67,44.51-12.62-5.81,6.4-15.41,9-23.36,13.26,5.52-.05,13.26-.91,19.57-.32,2.17.2,4.88.21,6.31,1.58-7-.33-12.07,1.19-18.3,1.58.59.46.72,2.86-.32,4.1,5.32-.3,10.71,1.86,16.1,2.52-8.31,1.09-18.59-1.17-26.2.95-.49,1.56-.25,3.39,1.58,3.47-.62,3.71,4,8.12,5.68,3.79,1.36-.15.4.85,1,.95,2,.21,2.34-1.24,3.78-1.58.89,1.12,1.83.24,2.84.31,2.51.19,4.89,1.6,7.26,1.58,5.22,0,8.91-4,12-6.63,1.64,2.25,2.32,5.47,5,6.63,1.44-1.36-.32-3.79-.32-5.68,5,.62,5.78-4.71,11-2.84-.36,4.07-5.11,3.73-6.32,6.94,4.74,2.59,12.37,3.76,19.57,2.84.44-.66-1.9-1.24-1.89-2.52,0-2,.8-3.2,1.26-4.73-2.06.36-1.76,4.75-4.1,3.78-1.57-.21,1.05-.81.31-2.21-.42-2.23-4.73-4.1-6.62-1.89-.06-3.31-3.3-5.11-3.16-7.58.45-1.33,3.43-.14,4.1-1.26.53.53.25,1.86.32,2.84,3.62-1.73-1.72-5.1,0-7.89,4.36.48,4,5.67,5.36,9.16,2-1.43,5.09-1.86,6.32-4.11,9.64-3.67,21.13,1.45,31.24,2.21a6.18,6.18,0,0,0,1.26,1.9c0,1.11-.9,1.41-.94,2.52,2.12-.3,3-1.81,3.79-3.47,1.26,1,1.7,2.93,2.2,4.73,3.49.68,5.5-2,7.26-.31,2-1.66,4.41,0,6.95-.63,1.21-.06.11.26.31.94,1.87.19,2.82-.55,4.74-.31-.69,2.22,1.73,3.89,1.26,6.94-2.23,1-7.84,1.82-9.47-.31-.84.31-1,1.27-1.58,1.89a12.13,12.13,0,0,0,5,1.89c-3.68,2.84-11.55,1.5-13.57,6,3.84-2.89,10.52.52,16.1.63.33,3.07-3.2,2.27-2.84,5.37,2.78-3.74,14-1.8,16.09-7.26.61.52.41,2.91,0,3.47-3.33-.08-4.91,1.61-7.26,2.52,2.8,3.41-2.4,6.21-2.84,9.47-.55,1.6,1.37.74,1.27,1.9-2.29,3.29-3.75,7.4-8.21,8.52,2.15,4.25-4.39,10.06-.63,13.89,3.69-.1,1.74-5.84,2.84-8.53,2.78-.32,5,2.47,3.16,4.74,1.84-.26,2.61-1.6,4.41-1.9V518.2c-3.77-.81-4.78,3.36-7.89,1.26a62.92,62.92,0,0,1-.94,7.89c1.61,0,6.19-1.33,8.83-.31v9.15c-2.53.62-6,.29-8.52.95,1.88,1.7,5.66,1.49,8.52,2.21.08,3.54-5.72,1.22-8.52,1.89-.33,4.12,1.34,6.24,1,10.42,2.75.12,4.7-.57,7.57-.32v7.58c-1.9.2-3.59.61-5.36.94,1.48.94,3.6-.17,5.36,0v1.26c-.83,1.38-4.21.21-5.68,1,.07,10.38,1.5,22.08-3.47,28.09-4.49.35-9,.65-13.89.63,5.37-1.36,11.11-2.36,15.47-4.73,4-8.79-2-19.1-1-26.83-.43-.72-2.19-.12-3.15-.31-2,8.16,2,18.28-.32,26.82-1.31-.79-2.83-1.37-4.1-2.21-.23-1.59,1.16-1.57,1.26-2.84-6.17.68-6.8,6.88-14.52,6-.17-2,1.93-1.65,2.53-2.84-4.2-1.46-4.2,4-5.05,6.94-2.33-.09-5.2.36-6.63-.63.63-.76,3.13-.9,4.1-.31.94-1.7.53-4.73,1.9-6-3.16-.81-5.59-.57-10.42-.63-1.9,1-1.66,4.23-2.84,6-.82-1.81-.68-4.58-1.58-6.31-1.46-1.39-5-1.32-5.36,1,.9,1.41,2.87,1.75,5.36,1.58.3,2.61-.73,3.9-.63,6.31-1.81.4-4.23.19-6,.63.49,2.07,4.92,1.42,3.47,4.42a7.7,7.7,0,0,0-3.78-3.47c.45,1-.49,1.86-1.26,3.15,1.25,1.9,3.93,2.38,5,4.42a6.43,6.43,0,0,1-2.84,4.42c-1.37-.2-3.56.41-4.41-.31-.7.92,1.2,1.93,1.58,2.84a31.56,31.56,0,0,1-2.84-2.53c-1.24.34-.55,2.61-2.22,2.53a23.94,23.94,0,0,0,4.42,5.36c-1.07,1.67-2.37,3.1-3.47,4.74-2.06-.36-2.81-2-5.36-1.9,1,1.51,2.83,6.84-1.9,5.68,0,1.12.91,1.41.95,2.53a42.74,42.74,0,0,0-4.42,3.47c-2-1.15-3.36-3-5.37-4.1-1,1.08-2.51,1.69-3.46,2.84-.36,2.56.7,3.71.94,5.68a18,18,0,0,0-5.05,2.21c-1.59-1.36-2.52-3.37-4.1-4.74v4.74c-1.6-.23-1.87.86-3.16.94s-.58-1.51-1.58-1.57c-.05,1.2,0,2.3.63,2.84-1.93.59-4.32.73-6.31,1.26.31-6.66-9.09-9.39-8.2-.32-2.68.26-4.26-.57-6.63-.63.66-1.85-.61-3.85-.32-6.31-1.33-.45-3-.6-4.1-1.26-1.19.6-1,2.62-.95,4.42,2.06.48,2.45-.71,3.48-1.27.74,2.49-5.48,3.27-4.74-.63a3.26,3.26,0,0,0-1,2.85c-2.22-.31-3.56-1.5-5.68-1.9-.23-2.55.52-4.12.32-6.63-.72-1.07-2.19-1.39-3.16-2.21-1.64.25-1.83,2-1.89,3.79-.12,1.49,2.47.27,2.52,1.58-1.19,1.48-1.44-1.12-3.47-.63-.27-1.54.43-2.1.63-3.16-1.62.06-1.36,2-2.84,2.21a12.44,12.44,0,0,1-5-3.79c1.5-.91,2.15-2.69,2.53-4.73-1.14-.5-3.44,2.83-4.74,1.26,1.82-.49,2.91-1.72,4.42-2.52-2.74-3.09-5.64-.43-8.84.31-.15-2.26-2.15-2.68-2.84-4.42.92-1.92,2.74-2.94,3.79-4.73-.48-1.63-.92-3.28-2.21-4.1-2.08-.4-2.07,1.29-3.47,1.57.63,1.06,1.65,1.72,1.89,3.16-1.33-.24-1.83-1.32-2.84-1.89.09-1.5,1.38-1.78,1.9-2.84a13.05,13.05,0,0,0-3.47,1.26,20.57,20.57,0,0,1-2.53-5.68c1.63-1.22,3.43-2.26,5-3.47-1.3-.55-5.35-1.78-6,0-1.72-.17-2.41-1.37-4.73-1-1-4.07-6.82-2.35-6.63,1.58-1.68.2-1.5-1.45-2.52-1.9a2.35,2.35,0,0,1-2.53.95c-2.68-.3-2.5-5.46,1-4.73a41,41,0,0,0-1.58-6.63c-.69.36-1.67-1.57-2.84-.63-1,1.52,1,2.24.63,4.1-1.24,3.53-5.08,1.33-6.63,0-1.86,2.43,1.34,4.93-.31,6.94,1.87,2.09,9,2.65,5.36,7.26-3.77.73-3.3-2.8-6.63-2.52-.81,1.29,1.89,1.36,1.58,3.15.19.82-.12,1.14-.94.95a2.81,2.81,0,0,1-2.84,4.73,3.74,3.74,0,0,1-1.27-3.78c-2.62,1.06-5.14,2.22-6.31,4.73-.94-2.89-4.17.81-6.31-1.58-.28-.78-.62-2.44,0-3.15-.59-1-1.5.36-2.53,0-.69-.67-.06-1.41.32-1.9-3.62,1.28-6-2.9-3.79-5.68-1.76-.08-2.13,1.24-2.84,2.21a11.06,11.06,0,0,0-4.42-4.1c0-1.39,1.41.21,2.53-.32-.63-.73-2.21-.52-2.84-1.26,0-1.8,1.67-.16,3.15-.63-1.45-.65-3.57-.64-3.78-2.53-2.16,1.65-3.82-1.22-5.06-.31s1.85,5.94-1.89,6.94a5.39,5.39,0,0,1-4.1-.94c-.21,1.47.66,4.59.63,6.94,1.56-.54,4.67-.67,4.73,1.26-2.45-.28-6.33.86-6.31-1.89-2,1.39-6.7,1.67-9.78.94.81,1.72,3.18,1.87,4.1,3.48-2.9,7.88-11.75-4-5.37-7.26,1.29-5.94-12.85-10.16-14.2-4.42.11.41.56.49.63,1,1.82.23,1.73-1.44,2.85-1.9,3.24,1.37,9.6,1,8.52,5.68-2.69,1.2-5.64-2-7.9-.31,1.14,2.13,5.23,1.29,6.32,3.47a2.34,2.34,0,0,1-1.26,2.52c-1.25.41-.77-.92-1.58-.94-1.12,0,.67,1-.32.94a20.41,20.41,0,0,1-6-1.89c.62-1.34,3.53-1.71,4.74-.63.21-1.16-.68-1.21-.63-2.21-2.15.06-5-.58-5,1.58-.61-.87,0-2.95-1.58-2.84-2.08.87-.33,5.12,0,5.36-1.35-.13-3.25.31-4.1-.31.18,2.6-.47,4.37-2.53,4.73-1,.12-2.3-2-4.1-2.21v-2.84c-2.34.23-3.86-.35-6-.31,2.5,6.89-9.36,6.5-6,0-2.29-.77-6.17.06-6.32-2.84-2.47,2,1.17,5.33-1.57,7.57-4.4,2.16-6.63-3.84-3.48-5.68-1.25.2-1.93-.17-1.89-1.26-2,2-5.59.46-9.15.63.69-4.06-.78-6-2.53-7.58-1,.37-1.1,1.64-1.89,2.21,2.16,1.66,1.49,6.33-2.53,5.37-1.46,2.6-4.89,9.12-8.2,4.1-5.12.67-8.55,3-12.31,5.05-.43-2.22,1.28-2.3,1.58-3.79-1.74.58-2.73,1.91-4.11,2.84.14.85,1.19,1.62.32,2.53-.66.55-2.32,1-2.84,0-1.54.77-1.87,2.76-3.47,3.47,3.53-6.36,7-12.76,11-18.62,1.91,0,3.88.09,5-.63a10.18,10.18,0,0,0-4.42-.63c2.36-5,5.45-9.29,7.89-14.21,3.82.53,6.67-2.57,6.95-6.62,2.65-.72,5.52-2.12,7.26.31,15.65-4.44,30.92-9.27,46.71-13.57.65-.72.65-2.09,1.26-2.84,7.9-2.62,16.39-4.66,23-8.52.74,5.36.11,12.1.32,18,21-.66,42.92.89,62.49,0,29.74-1.35,40.39-17.56,37.24-51.76H677.7c.14-6.93,4.68-12.43,11.36-13.26,10.07-1.24,22.28,0,34.08,0h34.09V485.38c-35.3,2.78-85.84-9.68-96,18.3-.66.7-.93-.4-1.89-.31-.68.59,1.94.56,1.26,2.21-.47.88-.95.52-1.58,0-.17,1.11,1.12.77.95,1.89-.49.14-.27,1-1.26.63,1.41,2.12-1,5.15-.32,8.52-2.7,1.82-5.4,3.65-7.89,5.68,2.7,0,4.59-3.61,7.58-4.41-.83,3.32,1.73,11-1.9,12.94.75,0,.93-.55,1.9-.32V552c-6.23,1.65-16.26,2.84-20.83,5.37-.64.11-1-.07-.95-.63-.28,1.25-1.57.29-1.58,1.26-1.69.22-1.38-1.56-2.84-1.58-3.25.72-6.76,1.82-10.1,2.84-5.1,1.57-9.78,2-12.94,4.1-.84-.71-1.61.48-2.21-.31-6.19,3.42-15.14,4.92-21.78,6.94,3.42-5.72,8.26-10.56,12.63-15.78,13-15.48,26.88-31.19,39.77-47,7.2-6.3,11.78-14.57,18.62-21.78H636.35c-1.27-.1-.16-2.58-1.89-2.21-1.75-.13-.81,1.72-1.27,2.21-6.13.05-12.38-.09-17.67,0-.24-1.19.38-1.51.31-2.53-.79.57-.78,1.95-1.57,2.53a28.55,28.55,0,0,1-14.21-2.21c-.75.19.05,1.94-.63,2.21-31.68-2.23-55.22,3.69-55.86,32.51,2.42.73,6.2.1,9.15.31,1.23-.07.37,1.95,1.26,2.21,1.09-.41-.83-2,0-2.21h9.16c.71-12.22,11.74-14.14,25.88-12.94-.32,2.36-2.29,4.59-1.26,7.26,1.64-1.73,1.85-4.88,2.84-7.26h6.62c1.28.06-.33,1.76,1.27,1.9,1.38.12.82-1.71,1.89-1.9,4.6-.29,7.35,1.28,10.1,2.84a6,6,0,0,1-1.26,3.47c-4.92,1-13.73-5.33-14.21,2.84,2.31,1.59,5.69,2.1,8.53,3.16-11.72,14.69-24.41,28.4-36.62,42.61-6.65-7-11.92-15.43-18-23-6.64-.52-9.83-4.47-12-9.47-.67-1-1.41-.07-2.21-.63.85-15.27-2.25-26.58-10.1-33.14-.8-2.67-1.88-5.06-3.79-6.63.6,1.82,1.94,2.9,2.21,5.05-1.77-1.07-3.87-1.8-5-3.47-5.16-1.17-10.95-3.1-17.36-3.47-21.62-1.26-49,.94-71.33,0V505c10.62.56,24,.31,37.25.31s26.5-.89,36.61,0c7.21.64,11,6.25,12,12.94-8.12-.21-22.77,2.49-26.51-2.52-.63.85,1.92,1.22,1.58,2.84-17.77,0-40.75,0-60.6,0-.74,16.51-.11,34.4-.32,51.44,9.06.74,19.47.11,29,.32,1.32.3-.2,1.81,1.26,2.21,1.41-.07,1.41-1.54,2.21-2.21h72.6V550.39c-7.29-1-17,1.36-24.62,0-4.59-.82-11.48-6.78-12.94,0-9.05,1-10.76-5.44-17.05-7.26-1.26,2.1-1.37,5.37-2.84,7.26H448.87V537.14h15.47c1.11.15.57,2,1.58,2.21.76-.29-.72-.93-.32-1.9a11.25,11.25,0,0,1,3.16.95c.93-.27-.74-.47-.32-1.26,5.7.42,11.61-.9,15.47.94.45-.07.11-.94.63-.94h42c1.23-.28,1.13.77,1.9.94-.39-1.66,4-.69,6-.94.73-1.9.1-5.15.31-7.58a14.54,14.54,0,0,1,5.37,13.89c6.36,8.47,13.06,16.61,19.25,25.25a8.28,8.28,0,0,0-1,1.58c3.33.46,6.72.85,8.84,2.52-1.53,1.85-1.63,6-.32,8.21-2.26,5.73-5.57,10.42-7.89,16.1-10.53-.9-25.5-.1-37.24-.64-3.72-.17-7.15-1.23-9.78.64a14,14,0,0,0-7.58-.32c1.11-.78,1.05-2.74,1.58-4.1,1.83-.16,4.48.23,5.37,0a6.49,6.49,0,0,0-1.58-4.11c-3-.16-6.86.54-8.52-.94,3.18-1.35,8.62-.42,12.3-1.27-.12-2.38-2.74-5.63-5.05-6-3.17-.5-3.78,2.6-6.31,3.79-.89-1.65,2-1.91,1.9-3.79-8.05,1-17.74,3.09-23.67,7.26-.92-.94.12-2.6,0-3.79-4.46-2.25-12-2.49-18.31-1.89-.07.6,1.71,2.06,1.58,3.78a7.86,7.86,0,0,0,3.15-.31c-1.81,2,1.57,2.34.95,5.05,2.46.91,4.2-1.14,5.68-2.21-1.13,3.9-.78,8.34,3.16,8.84-1,2.58-2.31,6.52-5,6.31-.92-1.44,1.09-1,1.89-1.58.18-2.92-.8-4.67-1.26-6.94-.86-.55-2.26.54-3.79.31,0,5.36,2,10.43,2.84,13.89-4.71,1.74-3.58-5-5-7.58-.83-1-1.86,0-2.84-.94,1.15-1.3,1.58-5.47-.95-5.68-.39.76,2.75,3.42.32,4.41-2-1.17.42-4.86-2.52-5-3.59,2.52-1.92,10.28-6,12.3,2.22,2,5.52-1.4,8.2,0-1.16,1.68-3.62,2-5.68,2.84-.81.35.31,2.62-1.26,2.21-.23-1,.54-.92.32-1.89-4.76,2-11.44,2-18.31,1.89-1-1.9-2.45-5.24-.63-7.26-1.73-.8-5.26.21-6.63-.94,0-.75-.54-.93-.31-1.9-1,.76-4.83,2.67-6.63.32a7.5,7.5,0,0,0,0,4.73c-2.08,1-2.94,3.17-3.47,5.68-1.5-.92-4.5-.34-6.32-.94a14.7,14.7,0,0,0,.64-5.37h3.78c-.3-1.61-3.69-5.86,0-7.26-.95-1.88-2.81-.14-4.73-.31.39-4.77.82-9.49,1-14.52a2.93,2.93,0,0,1,2.84-1c.78-5.25-4.22-7.32-4.11-12.94-1.36-1-4.07-.55-6.31-.63a31.34,31.34,0,0,0,.32-5.36c2.44-.93,5-1.78,7.26-2.85-1.49-5.87-3-11.73-4.11-18,1.72.6,4.11.52,6,1a10.34,10.34,0,0,0-8.52-4.1c2.08-1.92,5.36-2.63,7.89-4.1-.48-3,1.25-9.88-1.58-10.1-1.29-.1-2.09.83-1.89,3.15-1.45.18-2-.56-3.48-.31v-3.16c-.51-.44-1.62-.27-1.89-1-.94.44-.83,2.12-.63,2.84-.56-.07-.72-.54-.63-1.26-.87-.13-.3,1.18-.95,1.26-1.17-.19-1.85-.88-2.84-1.26a3.3,3.3,0,0,0-1.26-4.42c-1,1.85-1.35.93-2.21,2.21a10.27,10.27,0,0,1-2.84-1.58c.31-1,1-1.73,1.26-2.84-1.7.71-.19-.53-1-1.26a16.68,16.68,0,0,0-3.78.63c-.15-1-1.21-1.11-1.27-2.21.83-1.27,2.36-2.63.95-4.42a31.13,31.13,0,0,0-3.16.64c-1-.37-.88-1.86-1.57-2.53.86-.93,1.92-1.65,2.84-2.52,0-2.05-2.64-2.35-3.79-2.21-.5-.66-.22-2.1-.63-2.84.75-.52,1.81-.71,2.52-1.27.06-.89-1.94.27-1.89-.63-.41-1.56.39-1.92,1.26-2.21-.13-.71-1.67,0-1.89-.63-.17-1.22.56-1.54.31-2.84,1.85-.15,4,0,3.79-2.21-.28-1.83-2.45.81-2.21-.63,1.66-.76-.8-2.26.63-4.42,1.14-.08,1.52.58,2.53.63.64-.67-2.64-3.25.63-3.15a2.56,2.56,0,0,1,.95-3.48c2.49.48,3.23,1.58,4.73-.31-.17-1.41-1.16-2-1.26-3.47a11.33,11.33,0,0,1,2.21-1.26c1.14,0,1,1.3,1.89,1.57.61-1.51.36-1,1.58-.31,1.59-.81.13-2.12.31-3.79a11.17,11.17,0,0,1,3.16-1.26c.08,1.81,1.12,2.66,3.16,2.52.94-.53.91-2,.94-3.47,1.34.07,2-.49,3.16-.63.15,2.26.45,3,2.21,3.16,2.48-2.74,5.33-7.39,7.89-11-.06,1-1.28,3.55-1.26,5.68,2.19,1.81,8.65-.66,10.41,1.58,2.33-1.15,1.77-5.18,3.16-7.26,2.8,1.3.1,5-.63,6.63,3.54-3,8.46-3.44,7.57-9.79,2.15-.42,5.57-1.1,7.89-.31-.89,1-2.68,1.1-4.42,1.26-.54.62-.54,1.77-.94,2.52.07,1,1.57.54,2.52.64v2.21c1.93-.63,5.29-1.65,7.26-.32.49-2.07-3.2-2.69-3.15-5.37.56-.17,1.31-.16,1.57-.63.81,0,.63,1.06.63,1.9.79-.8,1.2-2,2.85-1.9-2.31,5.93,6.34,9.49,6.31,2.21-.2-1.17-1.78-1-3.16-.94.75-1.89,3.81-.48,5.68-.64.4,2.93-2.22,2.83-1.89,5.69,7.91,3,18.41-5.63,25.56-7.26-.24-2.18-5.47.63-4.41-2.84,7.43,1.09,19.13.64,26.82,2.52.13-1.92-3.3-.28-4.1-1.26.6-1.7,4.42-.83,6-.63,2.23-3.66,2.79-9,9.15-8.53-3.67,2-.33,6.37-.95,9.47,5.82-2,11.54.9,17.68.64.91-.67,1-2.18,1.89-2.85,1.61,0,1.85,1.32,3.16,1.58.06-3.61.08-7.28,3.15-7.89-.78,4.14-3.32,9.69-.63,13.57h6c.17-5.29-.37-11.31.31-16.09-10.37-.59-21.44.86-32.5.63C506.91,433.23,499.47,413.74,490.22,396.06ZM536,424.46c8.11.42,17.88-.83,24.94.63-1,9-16.44,3.55-24.94,5.05v4.11c14.56-.3,32.22,3.53,29.36-13.57-8.11-.42-17.88.83-24.94-.64.72-9.16,16.34-3.44,24.62-5.05v-4.1C550.74,411.29,532.91,407.14,536,424.46Zm32.83-5.68h3.78c.52-3.7,6.62-4.82,10.42-3.15v18.62h4.42c.2-6.22-.41-13.25.32-18.94,3.07-.72,7.45-.12,11-.32v-4.1C587.1,411.82,569.82,407.17,568.81,418.78Zm34.08,15.15c-1.14,1-2.09-.24-2.84-.63-.95.66-3.91,1.23-5.36.32-.07,2-1.79,2.42-4.1,2.21.48,2.38-1.15,2.64-2.53,3.15.17,2-1,2.58-1.89,3.47h-1.9c-.36.8,2,1.61,1.58,3.47-2.18,1.95-1.67,6-.31,8.53-.06,1.32-2.56,1.85-1.58,3.15,1.07-.84,2.71.43,2.84,1.58.22,1.38-.91,1.4-.95,2.53,1,.07,1.34-.56,2.53-.32.44.92,1.64,1.09,1.26,2.84a4.25,4.25,0,0,1,4.42,2.53c1.14-.92,2.9.24,3.78.63.06.89-.27,2.16.64,2.21.72-3.45,5.73-.79,7.89-2.53,1.28-.12,1,1.34,1.89,1.58-.15-1.33.39-3.23,2.21-3.47,1,0,1.08,1,2.21.94a2.54,2.54,0,0,1,1.58-3.78c1,0,1,.84,2.21.63-.11-1.16-1.26-1.28-1-2.84a2.57,2.57,0,0,1,3.47-1.26c-1-1.05-2.06-3.87-.32-5.05-.27-.78-.94-1.16-.63-2.53s1.79-1.58,2.53-2.53c-1-1.06-2.65.4-3.16-1.26v-1.89c.1-1.27,1.94-.8,2.21-1.89-2.19.39-3.13-.45-3.47-1.9-.06-1.33,1.2-1.32,1.26-2.52a11,11,0,0,1-3.15.31c-1.43-1.2-.32-2.86-.64-4.1-.46,1.22-2.5.86-3.78,1.26-.4-.66-1.45-1.62-.63-2.52-3.31-2.81-.79-12.86-1.58-18.62.45-.08.53-.52,1-.64h11.36c4,0,8.14-.74,10.73.95-.46,7.33-11.6,4-18.62,4.74v3.78c10.59-1.65,11.92,6,17,9.79h4.42c-1.47-2.85-5.9-5.46-7.58-9.16,6.49-1.29,9.72-5.85,9.16-14.2H603.21C603,418.47,603.63,426.88,602.89,433.93Zm36.3-23v13.57h13.57c4.7,0,9.62-.76,12.94,1-1.87,8.35-18.7,3.36-26.51,4.73.13,1.35-.31,3.26.31,4.11,10.5-1.15,22.46,2.6,28.09-2.84,4.36-4.21,2.77-12,3.16-20.52H666c-.2,3.18.39,7.13-.32,9.79-7.18-.4-16,.8-22.09-.64.19-3-.39-6.7.31-9.15Zm36.3,23.36h4.42c.19-3.18-.4-7.13.31-9.79,10,.34,23.47-2.85,21.15,9.79h4.42c.92-8.71-3.67-11.91-9.16-14.21.53-1.79,2.41-3.18,3.79-4.73s3.35-3.29,3.16-4.42h-4.42c-3,1.76-5.82,8.79-9.16,9.79-2.59.77-6.39-.3-9.78-.32-.71-2.55-.13-6.4-.31-9.47h-4.42Zm37.87-20.2c-4,4.22-2.51,11.76-2.84,20.2h30.3v-4.11c-8.42-.2-17.67.42-25.57-.31-.48-1.24-.65-4.57.32-5.37h21.14v-3.78h-11c-3.85,0-7.94.74-10.42-.95,2-8.09,16.67-3.54,25.57-4.74v-4.1C730.32,411.91,718.77,408.35,713.36,414.05Zm-146.45,2.21c-6.4,2.49-20.29-2-24.61,2.52,8,.41,17.65-.82,24.61.63.3-1.27,1.26-3.82,0-4.73Zm7,4.42c-2.28-.25-5.65.59-7-.64a59.94,59.94,0,0,1-.31,8.84c5,0,10.24.14,14.83-.31V416.89C576.9,416.15,574.68,417.71,573.86,420.68Zm43.87-1.9c3.71-.49,9.79,1.37,10.73-1.89C625.08,417.72,618.13,415,617.73,418.78Zm-28.41,1.58v6.94c4.22-.09,7.87-2.43,11.36-2.21a23.19,23.19,0,0,1-4.73,5.37c.83.22.67,1.44,1.58,1.58-.66-2.87,1.82-2.59,4.1-2.53v-8.2C598.9,419.06,593.16,419.08,589.32,420.36Zm118,15.47h-7.57v-2.21c-5.5-.72-11-3.11-16.73-2.53,2.54,1.74,5.27,2.87,7.26,4.42,2.34-.24,3.7.51,6,.32.32.3.63.62.94.94,5.19-.37,13.48,2.86,16.73-.63a20.45,20.45,0,0,1-5-.63V421.62c-2.28.27-4.37-1.3-6.31-.31C706.85,423.3,708.35,429.67,707.36,435.83Zm-155,8.83c2-3.42,5-6.36,9.46-6.94,2.22-.29,5.78,1.27,7.26-1.26-9.7-2.14-23.11.44-34.71-.95v-6c-8.39-1.93-16.53-4.09-26.2-4.73C516.92,437.43,534.61,441.09,552.4,444.66Zm6.31-18.3c-2.74.2-6.31-.42-8.52.31C552.8,426.47,557.39,429.25,558.71,426.36Zm14.2,10.1c1.3,2.69,7.4.6,10.73,1.26.59.78-.09,2.83,1.26,2.84,1.46-.16-1-1.13-.31-2.53.38-2.2,3.52-1.46,4.1-1.89C583.58,435.13,578.49,436.88,572.91,436.46Zm79.85,0c.54.71,2.11-.19,2.53-.63C654.5,436.09,652.57,435.21,652.76,436.46Zm75.43.63a2.25,2.25,0,0,0,1.9-1.26C729,435.74,727.91,435.75,728.19,437.09Zm6.63,2.21a2,2,0,0,1,0,1.58,7.5,7.5,0,0,0,1.89.63c.44-.63.31-1.81.64-2.53-1,.39-.24-1-1.27-.63C736.37,439.37,735.05,438.79,734.82,439.3Zm-177.69,2.21c-5.25,4-3.84,11.93-4.1,21.14h4.73v-9.47h22.09c.63-.85.19-2.75.32-4.1-7.17-.41-16,.83-22.09-.63,1.27-8.3,15.73-3.42,24-4.73V439.3C572.56,440.16,562.56,437.33,557.13,441.51Zm66-2.21v23.35h4.42c.21-6.21-.41-13.25.32-18.93,7.36.21,15.57-.43,22.41.31.37,8.16-11.52,4.05-18.31,5.05v3.79c12.84-2.59,10.45,10.5,21.15,9.78-1.43-3-6.2-5.38-7.58-9.47,6.91-.77,9.91-5.45,9.16-13.88Zm36.93,0a.85.85,0,0,0-.63.94c.83,7.64-1,15.08,2.84,19.26,5.2,5.66,16.56,2.14,26.83,3.15v-4.1c-8.7-1.34-21.64,3.29-24.62-3.79-.91-2.16-1.11-8,0-11.36,7.61.7,16.49.13,24.62.32V439.3Zm34.4,0c.34,8.42-1.17,16,2.84,20.2,5.41,5.69,17,2.13,27.46,3.15v-4.1c-8.88-1.32-24.06,3.65-25.56-5.05,5.82-1.23,15.12-.65,21.46-.32v-4.1c-7.16-.2-15.15.42-21.78-.32.15-1.63-.34-3.91.32-5h25.25c.63-1,.17-3,.31-4.42Zm39.46,3.78c-.39,1.05,2.13.78,2.2.32C735.46,443.1,734.58,442.37,733.88,443.08Zm-46.08,2.21a29.33,29.33,0,0,1-1.27,4.42c1.3,1.24,3.34,1.71,6,1.58a13.2,13.2,0,0,0,0-6.31C690.73,443.72,690.52,445.86,687.8,445.29Zm-127.2,1.9c4.85-.12,11.32.15,16.1,0,1.64-.05,4,.71,4.42-1.27C575.92,445.25,563.17,443.92,560.6,447.19Zm68.49,12.94c.68.58,2.31.21,3.47.31.34-.8-1.36-1.1-.31-1.57,3.84,1,2.93,5.32,4.1,8.52,1.16-.11,1.27-1.25,2.84-.95-.71-3.45-2.7-8.44-1.58-11.68-2.34-.18-5.43.38-7.26-.31V447.5c5.12-1.61,15.36,1.9,18-2.21H629.09Zm38.5-12.31c2.7.17,2.73-2.33,5.06-2.53-1.8.21-4.42-.41-5.69.32C667.87,445.65,667.54,446.93,667.59,447.82ZM768,447.5c.73.33,1,1.09,2.21.95.14-.6.9-.57.63-1.58A6.44,6.44,0,0,0,768,447.5Zm60.29.95c.17,3.12-4.94.95-5.37,3.47,5.44.39,8.52-1.58,10.73-4.42A15.51,15.51,0,0,0,828.25,448.45Zm-94.06,3.16a33.09,33.09,0,0,0,15.47-2.53A109.81,109.81,0,0,0,734.19,451.61Zm-161.28,3.15a23.76,23.76,0,0,0-1.58,8.52c1.12,0,1.15-1.16,2.53-.94,3.88,1.59,4.62,6.31,6.63,9.78,1-2.26,1.39-5.13,2.2-7.57a3.24,3.24,0,0,1-.31-5.68c-.8-.36-.92-1.4-1-2.53.18-1,1.49-.83,1.58-1.89C580,454.93,576.35,454.73,572.91,454.76Zm-13.26.32c1.1.17,3-.47,3.16.63-.13,3.22-2.69,5.78-.63,8.52,2.94-.59.9-4.63,1-6.94,1.44-.46,2.71-1.08,3.15-2.53C564.35,454.94,560,454.38,559.65,455.08Zm294.79,10.1c-10.15,8.4-16.46-9.79-24.3-6.63a3.52,3.52,0,0,1,1.26,3.16c-3.88.73-3.1-4.57-6-3.79-.87,1.66,1.55,3.62.32,5.68,4.16-.26,7-1.79,10.1-3.16-1.17,2,1.21,2.11,1.89,3.16.14,1.08-.94.95-1.26,1.58,2.45,1.38,5.76,2.23,9.47,3.15,3.27.82,7.78,2.73,10.73,2.21,7.17-1.25,5.3-12.29-4.1-9.47-.45-1.3,1.53-1.8.63-2.52-.18.76-1.19.7-1.9.95C851.58,462.15,854.81,461.86,854.44,465.18Zm-303,.63c.42-.85,2-.54,2.52-1.26C552.62,464.26,550.9,465.24,551.45,465.81Zm4.1,1.58c.46,2.47-4.67.84-3.79,1.89a5.81,5.81,0,0,0,4.11-.95,8.58,8.58,0,0,0-1-3.47,2.73,2.73,0,0,1-.31,1.9A.86.86,0,0,1,555.55,467.39Zm-6.63.31c-3.75.9,0,1.73.32-.94-.6-1.86-5.25-.72-4.42.63C545.22,466,549.13,465.31,548.92,467.7Zm37.56.63c1.08.24.4-1.28,1.58-.94a1.72,1.72,0,0,0-1.58-1.58Zm18.94,2.84c.42.43,2.2.61,2.21-.31-1.46.19-.89-1.64-1.9-1.9C605.3,469.37,605.42,470.34,605.42,471.17Zm3.47,2.21c1.62.17,3.09.49,3.47,1.9,1.49-.31.63-2.95,1.26-4.11C611.15,471,609.41,471.59,608.89,473.38Zm-1.89-.31a36.08,36.08,0,0,1-4.74-1.58C603.09,472.56,605.59,473.62,607,473.07Zm-43.56,9.15c-.24-3.13-.21-6.52-1.26-8.84C562.55,476.38,561.92,480.37,563.44,482.22Zm10.1-.63c-.16-3.18.55-5.34-.31-7.89C573,475.75,572.33,480.06,573.54,481.59Zm9.47,1c1.21-1.67,1.94-7.07,1-8.84C584.12,477.13,582.9,479.16,583,482.54Zm-35-6.63a19.66,19.66,0,0,1,.63,3.47,32.28,32.28,0,0,0,7.26-1.58C556.21,472.84,550.53,475.18,548,475.91Zm45.13,7.89a13.2,13.2,0,0,0,1.89-7.89A34.29,34.29,0,0,0,593.11,483.8Zm8.21-2.84q3.4,1,6.62,2.21a30.62,30.62,0,0,0,1.27-3.79C606,478.85,601.24,475.32,601.32,481ZM412,485.38c1.74-8.61-10.47-9.6-11.37-2.53-.46,3.67,2.42,5.23,3.48,6.95C408.29,489.19,411.34,488.35,412,485.38Zm-11.37-5.68c.42,0,.29.55.63.63-.14-1,.85-.84,1-1.58C401.43,478.85,400.8,479.07,400.58,479.7Zm143,6c-.85-2.19-.87-5.23-2.53-6.63C541.59,481.35,542.27,485.19,543.56,485.69Zm-9.47,4.11c-.64-2.73-2.31-6.11-3.47-7.26A21,21,0,0,0,534.09,489.8Zm269.54-4.11c-20,1.54-32.12,11.34-32.83,32.51h19.57c1-7.22,4.66-12.16,11.68-12.94,11.42-1.27,31.06.92,41-.31-18.35,19.47-37,41-54.29,61.22-1.1,1.29-3.17,3-2.52,4.11h24.61c22.31-26.16,45.73-53.5,67.86-79.54,1.47-1.72,3.83-3.85,3.47-5.36C857.43,486.43,827.65,483.84,803.63,485.69Zm-412.2,2.21c-.36-1,.5-.77.63-1.26a2.69,2.69,0,0,0-1.89-.32C390.19,487.25,390.89,487.5,391.43,487.9Zm129.09,1.9c-.19-.78-1.11-2.45-1.58-1.9C519.64,488.36,519.56,489.59,520.52,489.8Zm-121.83,9.46c5.67-1.43,3.91-12.07-2.84-10.73C388,490.1,391.76,501,398.69,499.26Zm16.1,12.31v-3.78c-9.91,1.39-11.38-16.14-.32-14.52v-4.11C399.41,488.56,398.46,513.81,414.79,511.57Zm-1.58-14.2a1.5,1.5,0,0,0-.95.32c-1.19.14-1.48-.63-2.21-.95.2,1.17,1.29,1.44.95,3.16a2.55,2.55,0,0,0-1.9.63c1.81.18,1.91,2.34,1.9,3.47.32-.74,1.09-1,2.21-.95.68.27-.12,2,.63,2.21a5,5,0,0,0,1-2.84,1.79,1.79,0,0,1-2.53-.63c.44-1.38-.09-1.76,0-3.47a3,3,0,0,1,2.53,0c-.72-.87-.15-3-1.58-3.16Zm-26.83-.32c-.9-.51,1.18-.68,1.26-1.26C385.92,495.08,385.32,497.75,386.38,497.05Zm0,3.48c.76-.13.69.57,1.58.31v-1.58C386.93,499.18,386.44,499.64,386.38,500.53ZM655,499.9c.47.05,1.17-.12,1.26.31-.07,1.51-1.8,1.35-2.21,2.53a4.59,4.59,0,0,0,3.16-2.84C656.27,499.93,655.37,498.57,655,499.9Zm-263.86,8.2c-1-.47.68-1.8-.63-1.58-.29,4.38,6.82,9.18,11,5.37a6,6,0,0,0,1.58-4.42c-.57-.38-1.84-.06-2.21-.63,0-.7,1.34-.13,1.89-.32-.08-1.73-2.05-2.45-1.26-4.1C395.85,501,392.06,503.78,391.11,508.1Zm265.75-1.26c2.47,2.34.62,0,0-1.89C656.25,505.54,656.77,506.1,656.86,506.84Zm-10.73,2.21c2,1.06,2.53,3.57,4.74,4.42a21.58,21.58,0,0,1,2.52-1.9c-1.14-2.43-3.19-4-5-5.68C648.14,507.48,646.34,507.46,646.13,509.05Zm-144.86,3.47c-2-1.34-3.83-4.59-6-4.73C497.09,509.33,499,512.52,501.27,512.52Zm-99.42,6c1.59,8.1,15.77,3.19,9.46-5-.72-.44-1.18.81-1.26,0,.76-1.32-.83-1.52-1.89-1.9-.76-.12.17,1.44-1,.95a.87.87,0,0,0-.63-.95C404,513.15,401,514.31,401.85,518.52ZM477.28,516c.59,1.39,1.9,1.44,2.21-.31C479.06,515.25,477.28,515.07,477.28,516Zm89.63,2.84c-.07-1.3.26-3-.94-3.15C566,517,566,518.36,566.91,518.83Zm6-.31c.08-.59,1-2.86-.32-2.84C572.79,516.53,572.19,518.18,572.91,518.52Zm6.31.63c-.17-1.28,1.43-2.9,0-3.47C579.4,516.82,578.29,518.29,579.22,519.15Zm5.68.94c.9-.27,1.85-3.46,1-3.47C585.81,518.05,585.08,518.8,584.9,520.09Zm12.31,4.11c0-1.14,1.89-2.1.95-3.16C598,522,596.37,523.24,597.21,524.2Zm-48.6-.32c.23-1.19-.46-3.09-1.26-2.21C548.17,522,547.79,523.54,548.61,523.88Zm-5.37,2.53a8.06,8.06,0,0,0-1.89-3.16C541.31,525,542.39,525.57,543.24,526.41Zm79.22,3.78c1.17-.19,1.45-1.29,3.16-.94-.38,1.73-2,3.94-1.58,5.36a15.76,15.76,0,0,0,1.89-6A3.52,3.52,0,0,0,622.46,530.19Zm-98.15,12.63c-.11-1.07-1.64-2.35-2.53-1.58C523,541.43,523.41,542.34,524.31,542.82Zm-53,5.36c1.56,0,2.23.93,3.79,1,.35-2.49,1.55-4.13,1.89-6.63-1-.52-2.41-.73-3.47-1.26C473,543.76,471.94,545.79,471.28,548.18Zm-5-.63c0-1.61,2-2.85.95-4.42-.62,1.18-.08,3.5-1.89,3.48-.22-1.79.56-2.59.63-4.11a6.49,6.49,0,0,0-1.9-.94c-.57,1-2.68,3.51-.94,4.73-.06-1.94-.16-3.95,1.57-4.1C466.61,543.64,462.94,547.32,466.23,547.55Zm155-3.78c.66-.71,1.87-.87,2.21-1.9C622.32,542,620.81,543.25,621.2,543.77Zm-100.37,3.78c-.69-.27-1.86-1.68-2.52-.94C519,546.88,520.18,548.29,520.83,547.55ZM624,549.13c1.09-.49,2.6-.55,2.84-1.89A5.45,5.45,0,0,0,624,549.13Zm2.84,5.37c1.23-.25,2.7-.25,3.16-1.27C628.81,553.48,627.45,553.6,626.88,554.5Zm11.68,7.26c.88-1.17,4.74-.89,6,.94a2.6,2.6,0,0,1-.64,1.9c-2.45.13-3.39-1.24-6-1-.26.79-.87,1.24-.95,2.21,2.28.36,4.36,2.58,6.94,1.58-1.89-.94-4.82-.86-6-2.53,1.91-1.67,4.67,1.1,6.63.32.25-1,.93-1.6.94-2.84C644.08,561.63,639.7,558.81,638.56,561.76Zm-125.62,9.46c-.63-.12-2.34-.78-2.84,0C510.73,571.35,512.44,572,512.94,571.22Zm118.67,1.58c.9,0,2.17.27,2.21-.63C633.11,572.4,631.36,571.6,631.61,572.8ZM459,581.64c-.21-2.53-4.18-1.29-6.63-1.58-.7,1-.65,2.71-1.89,3.16-1,0-2.41.31-2.21-1,.13-.71,1.73.05,1.58-.95a26.84,26.84,0,0,0-14.2-5.68c-4.39-.31-11.38,1-11.37,4.74,0,4.17,8.25,4.78,11.37,5.68-.72-2.34-4.32-1.79-3.47-5.68a19.83,19.83,0,0,0,4.1-2.21c8.86-.55,10.44,7.86,16.41,9.15-.3-1.18-1.81-1.14-2.84-1.58A6.16,6.16,0,0,1,459,581.64Zm8.84-4.1c2.74-.21,6.31.42,8.52-.32C473.76,576.79,469.82,576,467.81,577.54Zm44.5,0c-.46-.49-1.61-.28-2.52-.32C509.47,578.3,512.16,578,512.31,577.54Zm122.78,1.26c-3.1-1.34-3,1.28,0,0Zm33.45.63c3,.06,7.1,1,9.16-.63C674.8,579.17,670.4,578,668.54,579.43Zm61.86,2.84c.76.31,2,1,2.84.32.17-1.22-.56-1.54-.31-2.84C731.53,580,730.27,580.45,730.4,582.27Zm67.54-1.89c.4,9.23-6.45,11.22-7.25,19.25a21.18,21.18,0,0,1,5.36.32c5.63-4,9.31-9.84,8.84-19.89A48.26,48.26,0,0,0,797.94,580.38ZM792.26,582c.61.13.58.9,1.58.63v-1.27A1.56,1.56,0,0,0,792.26,582Zm-63.75,4.1c1.51-.7,3.36-1.06,4.42-2.21a12.06,12.06,0,0,0-3.47-.32c-.18-.45.36-1.63-.32-1.57C729,583.37,728.19,584.16,728.51,586.06Zm-276.17-2.84c-.41,3,2.72,2.81,2.21,5,.08-.66,1.39-.09,1.58-.63.35-1.93-1.18-2-1.58-3.16,3.24-1.5,4.2,1.86,5.37,3.47,2-1.27-.42-3.73.63-5.68C457.78,582.55,454.88,582.71,452.34,583.22Zm325.09,6c1.8-.57,3.74-2.49,6.31-1.26.2,1.17-.41,3.15.32,3.79,2.26-1.33.89-4.66,3.79-4.74,1.66,0,1.45,1.52,3.15,2.21,1.66-1.79-1.63-2.88-1.58-5-3.63-.07-7,4.84-8.2-.64-1.58.1-3.82-.8-4.74-.31C778.76,583.94,779.4,587.6,777.43,589.21Zm36-3.78c.25.07.37.26.32.63,1.07.87,2.56-.86,3.47,0-.77,2.49-5.66.86-7.58,2.21-.34.8,1.36,1.1.32,1.58-1-1.06-.74.59-1.26.94-1,0-.31-1.58-1.26-1.58a19.18,19.18,0,0,0-1.27,4.42c1,0,2.29-1.26,3.16-.31-1,.61-2.17,1-3.16,1.58a22.56,22.56,0,0,0,1.89,5.68,120.94,120.94,0,0,1,16.42,1.89c1.67-1.06,2.59-2.88,3.47-4.73-2.55.37-7.65,1.28-9.47.31,2.34-1.65,6.09-1.91,9.79-2.21,1.41-3.16-.8-7.14-2.53-9.15-.24,2.77-4.73,1.16-6.63.95a9.25,9.25,0,0,0,.63-4.11C817.76,583.35,813.8,583.07,813.41,585.43Zm-50.18-1.26c0,1.71,2.65.71,2.52,2.52-.16,1.52-2,1.32-2.21,2.84a51.6,51.6,0,0,0,3.16,6.31,1.56,1.56,0,0,0-1.58.63c5.09,1.19,14.92,1.78,22.09,2.84.71-.77,2-2.63,1.27-3.78-9.06,3-16.16-3.41-17.68-11C768.19,585.6,765,583.83,763.23,584.17Zm-79.54,2.2h1.89c.08-.24,0-.62.32-.63.14-1.4-.81-1.71-2.21-1.57A2,2,0,0,0,683.69,586.37Zm-48.92-.94c-.44-.37-3-1.41-3.16,0C632.71,585.2,634.61,585.77,634.77,585.43ZM746.5,587c-.09.56.89,1.58,0,1.9s-1.47-.22-2.21-.32c-.73.43-.49,1.83-.95,2.53-1.9-.54-2.11,2.79-2.84,4.42,5.61,2,12.9-.53,16.42-1.58.07,1.34-.93,1.6-1.27,2.52,2.23.1,6.62,1,7.89,0-.3-2.11-4.4-.44-4.73-2.52h4.1c-.39-1-.34-2.39-1.26-2.84-.53,1.26-3.1,2.15-4.73,1.26C763.26,585.59,750.92,582.71,746.5,587Zm59.65,2.21c.13-.82.94-1,1-1.89C806.31,587.29,805.56,588.9,806.15,589.21Zm-129.72.95c-1.92-1-6.48-1.08-8.52-.95A16.9,16.9,0,0,0,676.43,590.16Zm153.39,4.11c.37-1.09.76-3.85-.63-4.11C828.73,591.1,829.42,593.19,829.82,594.27Zm3.16-2.53c.26-.79,1.1-1,1.58-1.58C833.52,590,832,591,833,591.74Zm-199.79-.32c-.87.11-2.21-.9-2.84,0C630.75,591.79,632.84,592.06,633.19,591.42Zm-36.92,6c1.21-.69.66-4.8.31-6C596.39,593,594.85,596.33,596.27,597.42Zm142-2.52c.25-1.42-1-2.95-1.58-2.53C737.41,593,737.29,594.53,738.29,594.9Zm-132.24,2.52c1-.11,1.27-2.5.63-3.15C606.54,595.38,606,596.09,606.05,597.42ZM739.87,599a2.69,2.69,0,0,0-.31-1.89c-.38,0-.9-.06-.95.31C739.2,597.78,739.28,598.64,739.87,599Zm23.36.63c-7.49-.51-15.57-2.11-22.73-1.89C741.37,609.24,760.61,610.41,763.23,599.63Zm-159.7,4.42c-.39-1.93.78-5.42-.64-6.31C603.19,599.84,600.85,603.45,603.53,604.05Zm-2.85-.32c1.25-.31.63-5.58.32-5.36C601.24,600.5,600.49,601.65,600.68,603.73Zm234.51-1.57c0-1.48-2.48-3.51-2.84-2.53C833.78,600,834.26,601.3,835.19,602.16ZM792,601.84c-6.9-.15-14.39-1.39-20.52-1.26C775.34,604.14,786.25,605.18,792,601.84ZM766.7,603.1c1.4-.07,2.3-.64,3.79-.63.09-.72-.08-1.18-.63-1.26C769.06,602.1,767.49,602.21,766.7,603.1Zm-140.45,0c1.47.64,3.57,2.32,5.68,1.26-1.48-.19-2.1-1.26-2.52-2.52A3.52,3.52,0,0,0,626.25,603.1Zm108.89,1.58c2.88-1.21-.75-.61-1.26-2.52A3,3,0,0,0,735.14,604.68Zm1.89-.95c1.6.62,3.36-1.5,2.53-1.26C739.22,603.39,737.37,602.81,737,603.73Zm93.11-.63c.79,1.56,5.25.93,4.42-.63C834,604.24,831.85,602.9,830.14,603.1Zm-20.2,7.26c-1.6-6.81-12.42-9.53-18-4.42,1.35,2.13,4.56,4.07,4.73,6.31-2.56-1.22-3.1-4.47-6-5.36-5.66,4.57-3,15.69,3.15,18,1.43.17.85-1.68,2.21-1.58.23,1-.32,1.15-.31,1.89,8.91.38,14.77-5,14.83-14.51.63.53.5,1.81,1.26,2.21.69-1.63-2.09-5.31-1.89-5.37C809.64,608.58,810.91,609.68,809.94,610.36Zm12.94-6.63c-4-.08-9.13-.76-12.63-.31C812.9,606.54,819.85,606.5,822.88,603.73Zm-51.13,1.9c-.9,0,.38-2.07-1-1.58-14.6,1.22-12,24.25,3.47,21.78-.36-1.49-3.43-3.07-1.57-4.74a28.26,28.26,0,0,0,2.84,4.42c7.41-1.15,8.51-14.27,3.15-18.62a10,10,0,0,1-3.15,1.89c.15-1.53,1.84-1.52,2.21-2.84a9,9,0,0,0-5.37-2.21C772.19,604.38,772.89,605.92,771.75,605.63Zm17.36-1c.6-.07.69.36,1.26.32,0-.63.86-.41.63-1.27A3.22,3.22,0,0,0,789.11,604.68Zm35,.63c1.34.18,1.47-.85,1.89-1.58C825,603.84,824.67,604.68,824.14,605.31Zm-41.66,2.84c-.53-.94-.64-2.31-1.89-2.52A4.18,4.18,0,0,0,782.48,608.15Zm5.68,0c.06-1.09,1.12-1.2,1.26-2.21C788.43,605.91,787.62,607.7,788.16,608.15Zm23,10.1c0-1,1.31-2.15,0-2.52C811.64,616.83,810.31,617.75,811.2,618.25Zm10.42,2.84c1.5-1.43-.55-3.27-1-4.73C817.37,617.07,818.62,620.92,821.62,621.09Zm-18.63,6c3.32-.49,6.81-4.11,6.32-6.31C808.11,623.79,805.08,625,803,627.09Zm13.26-1.9c-1.19,0-1.9-2.07-2.84-1.26,2,2.47,3.59,2.09,5.37-.31-.8-.58-.79-2-1.58-2.53C817.19,622.76,817.39,624.65,816.25,625.19ZM762.6,629c1.23-1.6.69-6.74-1.27-6C761.86,624.6,762.88,626.77,762.6,629Zm30.93-3.47c-1.44-.77-2.72-1.7-4.11-2.52C789.76,624.65,792.46,625.63,793.53,625.51Zm-41-.63c-1.12,0-1.15-1.17-2.53-1C750,624.84,751.83,625.63,752.5,624.88Zm21.77,2.84c-3.73,1.43-6.94-1.83-9.47-1.58C767.81,627,771.09,629.91,774.27,627.72Zm22.1-.63c.46.06.29.76.31,1.26,1.32-.14,4.81-1.18,3.47-1.89C799.51,627.28,797,626.23,796.37,627.09Zm-30.3,4.1c-3.49,3,2.3-1.39,1.58-2.84C767.06,629.23,766.24,629.89,766.07,631.19ZM796.68,634c.94-1.06,1.93-2.06,1.9-4.1C794.82,628.82,794.26,633.27,796.68,634Zm-6,2.21a3.39,3.39,0,0,0,2.84-3.16c-1.13.78-1,2.76-3.16,2.53-.78-1.43-.8-3.62-2.21-4.42A5.66,5.66,0,0,0,790.69,636.24Zm-13.89-.31a16.27,16.27,0,0,0-1.26-3.16C775.64,634.13,775.07,636.18,776.8,635.93Zm.63,0c1.18-.22,1.85.87,1.89-.64A2.59,2.59,0,0,0,777.43,635.93Z" transform="translate(-385.09 -361.02)"/><path class="cls-1" d="M552.08,608.78c0-1.14-2.24-.07-1.89-1.57-.19-1.56,1-1.7,2.52-1.58-9.8-2.73-24.58-2.13-36-2.21-.07-1.12,1.48-.63,1.26-1.9-8.76,3.31-22.53.77-33.45,1.27,16.72-4.64,41.1-1.61,60.6-3.48,3.09.94,9.53.75,12.31-.63-.66,2.76-3,7.14-4.74,10.42-.31.58-1.57,2.78-1.26,1.89A2.83,2.83,0,0,1,552.08,608.78Z" transform="translate(-385.09 -361.02)"/><path class="cls-1" d="M571,615.41c-.71.14-.13,1.56-.32,2.21-.9,0-.58-1.32-.63-2.21-.57,0-.67.39-1.26.32-2.74-4.52,4.7-10.05,6.94-4.74.91-.25,1.68-.64,2.53-.94-1.17,2.51-2.62,4.75-3.48,7.57.84.25,2.94-.87,3.79.63,1.32,4.88-5.45,3.77-3.79.32C573.51,617.69,572.78,614.78,571,615.41Zm1.57,0c.09-.65.85-.63,1.27-.95,0-1-1.11-2-.32-2.84C571.84,611.5,572.07,614.89,572.59,615.41Z" transform="translate(-385.09 -361.02)"/></svg>