<svg id="logo" xmlns="http://www.w3.org/2000/svg" width="400" height="86.01" viewBox="0 0 400 86.01"><defs><style>.cls-1{fill:#222121;}.cls-2{fill:#6eb844;}</style></defs><title>smugmug</title><path class="cls-1" d="M75,291.6l5.14-6.11a0,0,0,0,1,0,0c4.69,4,9.38,6.36,15.47,6.36,5.32,0,8.69-2.45,8.69-6.17v-.14c0-3.5-2-5.4-11.08-7.5C82.84,275.51,77,272.42,77,263.38v-.14C77,254.83,84,249,93.7,249a27.15,27.15,0,0,1,17.78,6.15,0,0,0,0,1,0,0l-4.59,6.47a0,0,0,0,1-.05,0c-4.4-3.28-8.81-5-13.29-5-5,0-8,2.59-8,5.82v.14c0,3.78,2.25,5.46,11.64,7.71,10.37,2.52,15.77,6.24,15.77,14.37v.14c0,9.18-7.22,14.65-17.52,14.65A30.26,30.26,0,0,1,75,291.65a0,0,0,0,1,0,0" transform="translate(-75 -231.99)"/><path class="cls-1" d="M117.79,261.77h8.41s0,0,0,0v5.47a0,0,0,0,0,.06,0c2.38-3.26,5.6-6.3,11.23-6.3a11.65,11.65,0,0,1,11,6.48,0,0,0,0,0,.05,0c3-3.9,6.93-6.48,12.52-6.48,8.06,0,13,5.12,13,14.17v23.58a0,0,0,0,1,0,0H165.6s0,0,0,0v-21c0-5.89-2.74-9-7.51-9-4.62,0-7.92,3.22-7.92,9.18v20.85s0,0,0,0H141.7a0,0,0,0,1,0,0V277.68c0-5.75-2.8-9-7.5-9s-7.92,3.5-7.92,9.25v20.78a0,0,0,0,1,0,0h-8.41s0,0,0,0V261.8a0,0,0,0,1,0,0" transform="translate(-75 -231.99)"/><path class="cls-1" d="M205,261.76s0,0,0,0v20.37c0,5.76-2.88,9.06-7.93,9.06h-.9c-5.05,0-7.93-3.3-7.93-9.06V261.8a0,0,0,0,0,0,0h-8.42a0,0,0,0,0,0,0v21.32a16.44,16.44,0,0,0,16.39,16.44h.94a16.44,16.44,0,0,0,16.39-16.44V261.8s0,0,0,0Z" transform="translate(-75 -231.99)"/><path class="cls-1" d="M343.27,261.76s0,0,0,0v20.37c0,5.76-2.88,9.06-7.93,9.06h-.89c-5.06,0-7.93-3.3-7.93-9.06V261.8a0,0,0,0,0,0,0H318a0,0,0,0,0,0,0v21.32a16.45,16.45,0,0,0,16.39,16.44h.95a16.44,16.44,0,0,0,16.38-16.44V261.8s0,0,0,0Z" transform="translate(-75 -231.99)"/><path class="cls-1" d="M263.54,249.71h9.16l14.89,23.15s0,0,.06,0l14.89-23.15h9.16a0,0,0,0,1,0,0v49a0,0,0,0,1,0,0h-8.56l0,0V263.7a0,0,0,0,0-.06,0l-15.54,23.21s-.05,0-.06,0l-15.4-23.07a0,0,0,0,0-.06,0v34.91a0,0,0,0,1,0,0h-8.41a0,0,0,0,1,0,0v-49s0,0,0,0" transform="translate(-75 -231.99)"/><path class="cls-1" d="M237.35,291.24c-6.48,0-10.82-4.05-10.82-11,0-6.74,4.51-10.78,10.82-10.78,6.13,0,10.64,4,10.64,10.78s-4.34,11-10.64,11m-10,12.46-7.9,4.36s0,0,0,.05l0,.05c2.76,5.71,9.11,9.85,17.47,9.85,14.88,0,19.66-9.84,19.66-20.41V261.8s0,0,0,0h-8.38s0,0,0,0v4.86s-.05,0-.06,0c-1.75-3.2-6.12-5.66-11.65-5.66-10.89,0-18.46,8.52-18.46,19.09,0,11.14,7.89,19.44,18.46,19.44,5.7,0,9.66-2.62,11.4-5.66,0,0,.06,0,.06,0v4c0,8-3.74,11.86-11.22,11.86a9.62,9.62,0,0,1-9.25-6l0-.06a0,0,0,0,0-.06,0" transform="translate(-75 -231.99)"/><path class="cls-1" d="M375.8,291.24c-6.47,0-10.81-4.05-10.81-11,0-6.74,4.51-10.78,10.81-10.78,6.13,0,10.65,4,10.65,10.78s-4.35,11-10.65,11m-9.95,12.46-7.9,4.36s0,0,0,.05l0,.05c2.76,5.71,9.1,9.85,17.47,9.85,14.87,0,19.66-9.84,19.66-20.41V261.8a0,0,0,0,0,0,0h-8.38a0,0,0,0,0,0,0v4.86a0,0,0,0,1-.06,0c-1.75-3.2-6.11-5.66-11.64-5.66-10.9,0-18.47,8.52-18.47,19.09,0,11.14,7.9,19.44,18.47,19.44,5.7,0,9.66-2.62,11.4-5.66,0,0,.06,0,.06,0v4c0,8-3.74,11.86-11.22,11.86a9.61,9.61,0,0,1-9.25-6l0-.06a0,0,0,0,0-.06,0" transform="translate(-75 -231.99)"/><path class="cls-2" d="M428.32,246.59c6.75-.11,10-4.09,9.56-7.72-.36-3-3.29-5.81-8.86-5.86a7.94,7.94,0,0,0-8,6.8c-.46,3.43,1.67,6.86,7.34,6.78" transform="translate(-75 -231.99)"/><path class="cls-2" d="M461.32,245.77c6.48-.37,9.31-3.63,9.35-6.88.05-3.67-3.45-7.33-9.28-6.85-4.67.38-7.4,3.62-7.82,6.86-.46,3.6,1.95,7.2,7.75,6.87" transform="translate(-75 -231.99)"/><path class="cls-2" d="M436.39,296.18c-22.48,0-19.41-26.51-15.63-26.66,26.13-1,32.79-1.93,42.13-2.13C472.48,267.18,454.13,296.11,436.39,296.18ZM465,259.33c-15.93,1.61-16.71,1.76-46,2.44-12.36.05-9.86,42.52,16.53,42.52C460.66,304.29,491.09,257.16,465,259.33Z" transform="translate(-75 -231.99)"/></svg>